<?xml version="1.0" encoding="UTF-8" standalone="no"?>
<!-- Created with Inkscape (http://www.inkscape.org/) -->

<svg
   version="1.1"
   id="svg2"
   xml:space="preserve"
   width="768"
   height="480"
   viewBox="0 0 768 480"
   sodipodi:docname="bestmodel.both.edited.svg"
   inkscape:version="1.1 (ce6663b3b7, 2021-05-25)"
   xmlns:inkscape="http://www.inkscape.org/namespaces/inkscape"
   xmlns:sodipodi="http://sodipodi.sourceforge.net/DTD/sodipodi-0.dtd"
   xmlns="http://www.w3.org/2000/svg"
   xmlns:svg="http://www.w3.org/2000/svg"><defs
     id="defs6"><clipPath
       clipPathUnits="userSpaceOnUse"
       id="clipPath26"><path
         d="M 32.63,32.63 H 467.69 V 330.11 H 32.63 Z"
         id="path24" /></clipPath></defs><sodipodi:namedview
     id="namedview4"
     pagecolor="#ffffff"
     bordercolor="#666666"
     borderopacity="1.0"
     inkscape:pageshadow="2"
     inkscape:pageopacity="0.0"
     inkscape:pagecheckerboard="0"
     showgrid="false"
     inkscape:zoom="1.7583333"
     inkscape:cx="428.53081"
     inkscape:cy="240.28436"
     inkscape:window-width="1848"
     inkscape:window-height="1016"
     inkscape:window-x="72"
     inkscape:window-y="27"
     inkscape:window-maximized="1"
     inkscape:current-layer="g8" /><g
     id="g8"
     inkscape:groupmode="layer"
     inkscape:label="bestmodel.both"
     transform="matrix(1.3333333,0,0,-1.3333333,0,480)"><g
       id="g10" /><g
       id="g12" /><path
       d="M 0,0 H 576 V 360 H 0 Z"
       style="fill:#ffffff;fill-opacity:1;fill-rule:nonzero;stroke:none"
       id="path16" /><g
       id="g18" /><path
       d="m 238.14,305.25 -0.06,-0.41 -0.26,-1.83 -0.26,-1.79 -0.24,-1.75 -0.25,-1.72 -0.24,-1.68 -0.23,-1.66 -0.24,-1.62 -0.22,-1.59 -0.22,-1.56 -0.22,-1.53 -0.22,-1.5 -0.21,-1.47 -0.21,-1.45 -0.2,-1.42 -0.2,-1.39 -0.2,-1.37 -0.19,-1.35 -0.19,-1.32 -0.19,-1.3 -0.18,-1.29 -0.19,-1.26 -0.18,-1.24 -0.17,-1.22 -0.18,-1.21 -0.17,-1.18 -0.17,-1.18 -0.17,-1.15 -0.17,-1.14 -0.17,-1.13 -0.16,-1.12 -0.17,-1.1 -0.16,-1.1 -0.16,-1.08 -0.16,-1.07 -0.16,-1.07 -0.16,-1.05 -0.16,-1.05 -0.15,-1.05 -0.16,-1.04 -0.16,-1.03 -0.16,-1.03 -0.15,-1.03 -0.16,-1.02 -0.16,-1.03 -0.16,-1.02 -0.16,-1.03 -0.16,-1.03 -0.16,-1.02 -0.16,-1.04 -0.16,-1.03 -0.16,-1.04 -0.17,-1.05 -0.16,-1.05 -0.17,-1.06 -0.17,-1.07 -0.17,-1.08 -0.18,-1.09 -0.17,-1.09 -0.18,-1.11 -0.18,-1.12 -0.19,-1.14 -0.18,-1.15 -0.19,-1.16 -0.19,-1.18 -0.2,-1.19 -0.19,-1.22 -0.21,-1.23 -0.2,-1.25 -0.21,-1.27 -0.21,-1.29 -0.22,-1.31 -0.21,-1.33 -0.23,-1.36 -0.23,-1.38 -0.23,-1.41 -0.23,-1.43 -0.24,-1.46 -0.25,-1.48 -0.25,-1.52 -0.26,-1.54 -0.26,-1.57 -0.26,-1.6 -0.27,-1.64 -0.28,-1.67 -0.28,-1.7 -0.29,-1.73 -0.29,-1.77 -0.01,-0.05"
       style="fill:none;stroke:#000080;stroke-width:0.03;stroke-linecap:butt;stroke-linejoin:bevel;stroke-miterlimit:1;stroke-dasharray:none;stroke-opacity:1"
       id="path28" /><path
       d="m 218.59,207.49 2.23,-14.78 6.88,13.26 z"
       style="fill:#000080;fill-opacity:1;fill-rule:nonzero;stroke:#000080;stroke-width:0.03;stroke-linecap:butt;stroke-linejoin:bevel;stroke-miterlimit:1;stroke-dasharray:none;stroke-opacity:1"
       id="path30" /><path
       d="m 245.36,305.25 0.69,-1.4 0.83,-1.68 0.82,-1.65 0.79,-1.61 0.79,-1.59 0.76,-1.55 0.75,-1.52 0.74,-1.5 0.73,-1.47 0.71,-1.44 0.69,-1.41 0.69,-1.39 0.67,-1.37 0.66,-1.34 0.64,-1.32 0.64,-1.3 0.62,-1.28 0.62,-1.25 0.6,-1.24 0.6,-1.22 0.58,-1.2 0.58,-1.18 0.56,-1.17 0.56,-1.15 0.55,-1.14 0.54,-1.13 0.54,-1.11 0.53,-1.1 0.52,-1.09 0.52,-1.08 0.51,-1.07 0.51,-1.06 0.5,-1.06 0.49,-1.04 0.5,-1.04 0.48,-1.04 0.49,-1.03 0.48,-1.03 0.48,-1.03 0.48,-1.02 0.48,-1.02 0.47,-1.03 0.48,-1.02 0.47,-1.02 0.47,-1.03 0.48,-1.03 0.47,-1.04 0.47,-1.04 0.48,-1.04 0.48,-1.05 0.48,-1.06 0.48,-1.07 0.49,-1.07 0.49,-1.09 0.49,-1.1 0.49,-1.11 0.5,-1.12 0.51,-1.13 0.51,-1.15 0.52,-1.16 0.52,-1.18 0.53,-1.2 0.53,-1.21 0.55,-1.23 0.55,-1.25 0.55,-1.27 0.57,-1.29 0.57,-1.31 0.59,-1.34 0.59,-1.36 0.6,-1.38 0.62,-1.4 0.62,-1.44 0.64,-1.46 0.64,-1.48 0.66,-1.52 0.67,-1.54 0.68,-1.57 0.7,-1.61 0.71,-1.64 0.72,-1.66 0.74,-1.71 0.75,-1.73 0.76,-1.77 0.78,-1.81 0.8,-1.84 0.81,-1.88 0.34,-0.78"
       style="fill:none;stroke:#b22222;stroke-width:0.91;stroke-linecap:butt;stroke-linejoin:bevel;stroke-miterlimit:1;stroke-dasharray:none;stroke-opacity:1"
       id="path32" /><path
       d="m 287.43,203.93 9.87,-11.22 -1.4,14.88 z"
       style="fill:#b22222;fill-opacity:1;fill-rule:nonzero;stroke:#b22222;stroke-width:0.91;stroke-linecap:butt;stroke-linejoin:bevel;stroke-miterlimit:1;stroke-dasharray:none;stroke-opacity:1"
       id="path34" /><path
       d="m 246.33,305.25 2.05,-3.53 2.05,-3.54 2.01,-3.47 1.97,-3.39 1.93,-3.34 1.9,-3.26 1.85,-3.21 1.82,-3.14 1.79,-3.08 1.75,-3.03 1.72,-2.96 1.68,-2.92 1.65,-2.86 1.62,-2.81 1.59,-2.76 1.56,-2.71 1.54,-2.66 1.5,-2.62 1.48,-2.58 1.46,-2.53 1.43,-2.5 1.4,-2.46 1.38,-2.42 1.37,-2.39 1.33,-2.35 1.32,-2.32 1.3,-2.3 1.29,-2.26 1.26,-2.24 1.25,-2.21 1.23,-2.19 1.22,-2.17 1.2,-2.15 1.19,-2.13 1.18,-2.12 1.17,-2.1 1.16,-2.09 1.15,-2.08 1.14,-2.06 1.13,-2.06 1.12,-2.05 1.12,-2.05 1.12,-2.05 1.11,-2.04 1.11,-2.04 1.1,-2.05 1.11,-2.05 1.1,-2.06 1.11,-2.06 1.1,-2.07 1.11,-2.08 1.11,-2.09 1.12,-2.11 1.12,-2.12 1.13,-2.14 1.13,-2.16 1.14,-2.18 1.15,-2.2 1.16,-2.23 1.17,-2.25 1.18,-2.27 1.2,-2.31 1.2,-2.34 1.22,-2.37 1.24,-2.4 1.25,-2.44 1.27,-2.47 1.29,-2.51 1.3,-2.56 1.32,-2.59 1.35,-2.64 1.36,-2.69 1.39,-2.73 1.41,-2.78 1.44,-2.84 1.46,-2.88 1.48,-2.94 1.51,-2.99 1.54,-3.05 1.57,-3.11 1.6,-3.17 1.63,-3.23 1.66,-3.3 1.69,-3.36 1.72,-3.43 1.76,-3.49 1.79,-3.57 1.83,-3.64 1.86,-3.72 1.9,-3.79 1.94,-3.86 1.98,-3.95 2.02,-4.02 0.62,-1.24"
       style="fill:none;stroke:#b22222;stroke-width:0.3;stroke-linecap:butt;stroke-linejoin:bevel;stroke-miterlimit:1;stroke-dasharray:none;stroke-opacity:1"
       id="path36" /><path
       d="m 369.27,68.12 10.5,-10.63 -2.24,14.77 z"
       style="fill:#b22222;fill-opacity:1;fill-rule:nonzero;stroke:#b22222;stroke-width:0.3;stroke-linecap:butt;stroke-linejoin:bevel;stroke-miterlimit:1;stroke-dasharray:none;stroke-opacity:1"
       id="path38" /><path
       d="m 276.48,305.25 -0.33,-0.78 -0.82,-1.88 -0.79,-1.84 -0.78,-1.81 -0.77,-1.77 -0.75,-1.73 -0.74,-1.71 -0.72,-1.66 -0.71,-1.64 -0.69,-1.61 -0.69,-1.57 -0.67,-1.54 -0.65,-1.52 -0.65,-1.48 -0.63,-1.46 -0.63,-1.44 -0.61,-1.4 -0.6,-1.38 -0.6,-1.36 -0.58,-1.34 -0.58,-1.31 -0.56,-1.29 -0.56,-1.27 -0.55,-1.25 -0.54,-1.23 -0.54,-1.21 -0.53,-1.2 -0.52,-1.18 -0.52,-1.16 -0.51,-1.15 -0.5,-1.13 -0.5,-1.12 -0.5,-1.11 -0.49,-1.1 -0.49,-1.09 -0.49,-1.07 -0.48,-1.07 -0.48,-1.06 -0.48,-1.05 -0.47,-1.04 -0.48,-1.04 -0.47,-1.04 -0.47,-1.03 -0.48,-1.03 -0.47,-1.02 -0.47,-1.02 -0.48,-1.03 -0.48,-1.02 -0.47,-1.02 -0.48,-1.03 -0.49,-1.03 -0.48,-1.03 -0.49,-1.04 -0.49,-1.04 -0.5,-1.04 -0.5,-1.06 -0.51,-1.06 -0.51,-1.07 -0.51,-1.08 -0.53,-1.09 -0.53,-1.1 -0.53,-1.11 -0.55,-1.13 -0.55,-1.14 -0.55,-1.15 -0.57,-1.17 -0.58,-1.18 -0.58,-1.2 -0.6,-1.22 -0.6,-1.24 -0.61,-1.25 -0.63,-1.28 -0.63,-1.3 -0.65,-1.32 -0.66,-1.34 -0.67,-1.37 -0.68,-1.39 -0.7,-1.41 -0.71,-1.44 -0.72,-1.47 -0.74,-1.5 -0.75,-1.52 -0.77,-1.55 -0.78,-1.59 -0.8,-1.61 -0.81,-1.65 -0.83,-1.68 -0.7,-1.4"
       style="fill:none;stroke:#b22222;stroke-width:0.16;stroke-linecap:butt;stroke-linejoin:bevel;stroke-miterlimit:1;stroke-dasharray:none;stroke-opacity:1"
       id="path40" /><path
       d="m 226.7,207.5 -2.16,-14.79 10.44,10.69 z"
       style="fill:#b22222;fill-opacity:1;fill-rule:nonzero;stroke:#b22222;stroke-width:0.16;stroke-linecap:butt;stroke-linejoin:bevel;stroke-miterlimit:1;stroke-dasharray:none;stroke-opacity:1"
       id="path42" /><path
       d="m 283.26,305.25 0.01,-0.05 0.3,-1.77 0.29,-1.73 0.28,-1.7 0.27,-1.67 0.28,-1.64 0.26,-1.6 0.26,-1.57 0.26,-1.54 0.25,-1.52 0.24,-1.48 0.24,-1.46 0.24,-1.43 0.23,-1.41 0.23,-1.38 0.22,-1.36 0.22,-1.33 0.22,-1.31 0.21,-1.29 0.21,-1.27 0.2,-1.25 0.2,-1.23 0.2,-1.22 0.2,-1.19 0.19,-1.18 0.19,-1.16 0.18,-1.15 0.18,-1.14 0.19,-1.12 0.17,-1.11 0.18,-1.09 0.17,-1.09 0.18,-1.08 0.17,-1.07 0.16,-1.06 0.17,-1.05 0.17,-1.05 0.16,-1.04 0.16,-1.03 0.16,-1.04 0.16,-1.02 0.16,-1.03 0.16,-1.03 0.16,-1.02 0.16,-1.03 0.16,-1.02 0.15,-1.03 0.16,-1.03 0.16,-1.03 0.15,-1.04 0.16,-1.05 0.16,-1.05 0.16,-1.05 0.16,-1.07 0.16,-1.07 0.16,-1.08 0.16,-1.1 0.17,-1.1 0.16,-1.12 0.17,-1.13 0.16,-1.14 0.17,-1.15 0.17,-1.18 0.18,-1.18 0.17,-1.21 0.18,-1.22 0.18,-1.24 0.18,-1.26 0.19,-1.29 0.19,-1.3 0.19,-1.32 0.19,-1.35 0.2,-1.37 0.2,-1.39 0.2,-1.42 0.21,-1.45 0.21,-1.47 0.22,-1.5 0.21,-1.53 0.23,-1.56 0.22,-1.59 0.23,-1.62 0.24,-1.66 0.24,-1.68 0.24,-1.72 0.25,-1.75 0.26,-1.79 0.26,-1.83 0.06,-0.41"
       style="fill:none;stroke:#000080;stroke-width:0.14;stroke-linecap:butt;stroke-linejoin:bevel;stroke-miterlimit:1;stroke-dasharray:none;stroke-opacity:1"
       id="path44" /><path
       d="m 294.01,206.13 6.58,-13.42 2.57,14.72 z"
       style="fill:#000080;fill-opacity:1;fill-rule:nonzero;stroke:#000080;stroke-width:0.14;stroke-linecap:butt;stroke-linejoin:bevel;stroke-miterlimit:1;stroke-dasharray:none;stroke-opacity:1"
       id="path46" /><path
       d="m 286.04,305.25 0.04,-0.11 1.51,-3.67 1.48,-3.6 1.44,-3.52 1.42,-3.45 1.39,-3.39 1.36,-3.32 1.34,-3.25 1.3,-3.2 1.29,-3.13 1.26,-3.07 1.23,-3.02 1.21,-2.96 1.19,-2.9 1.16,-2.85 1.15,-2.8 1.12,-2.75 1.1,-2.71 1.08,-2.66 1.07,-2.61 1.04,-2.57 1.03,-2.53 1.01,-2.49 0.99,-2.45 0.98,-2.42 0.96,-2.38 0.95,-2.35 0.93,-2.32 0.92,-2.29 0.91,-2.26 0.89,-2.24 0.89,-2.21 0.87,-2.19 0.87,-2.17 0.85,-2.15 0.84,-2.13 0.84,-2.11 0.83,-2.1 0.82,-2.09 0.82,-2.08 0.81,-2.07 0.8,-2.06 0.8,-2.05 0.8,-2.05 0.8,-2.05 0.79,-2.05 0.79,-2.04 0.79,-2.05 0.78,-2.06 0.79,-2.06 0.79,-2.06 0.79,-2.08 0.8,-2.09 0.79,-2.1 0.8,-2.11 0.8,-2.13 0.81,-2.15 0.81,-2.16 0.82,-2.19 0.83,-2.21 0.83,-2.23 0.84,-2.26 0.85,-2.29 0.86,-2.31 0.87,-2.35 0.88,-2.38 0.89,-2.41 0.9,-2.45 0.91,-2.49 0.93,-2.52 0.94,-2.57 0.95,-2.61 0.97,-2.65 0.99,-2.7 1,-2.74 1.02,-2.8 1.03,-2.85 1.06,-2.9 1.07,-2.95 1.09,-3.01 1.12,-3.06 1.13,-3.13 1.15,-3.19 1.18,-3.24 1.2,-3.32 1.22,-3.38 1.25,-3.44 1.27,-3.52 1.3,-3.59 1.32,-3.65 1.35,-3.74 1.37,-3.81 1.41,-3.88 1.43,-3.97 0.38,-1.05"
       style="fill:none;stroke:#b22222;stroke-width:0.23;stroke-linecap:butt;stroke-linejoin:bevel;stroke-miterlimit:1;stroke-dasharray:none;stroke-opacity:1"
       id="path48" /><path
       d="m 372.2,69.29 9.17,-11.8 -0.48,14.93 z"
       style="fill:#b22222;fill-opacity:1;fill-rule:nonzero;stroke:#b22222;stroke-width:0.23;stroke-linecap:butt;stroke-linejoin:bevel;stroke-miterlimit:1;stroke-dasharray:none;stroke-opacity:1"
       id="path50" /><path
       d="m 315.02,305.25 -0.8,-1.14 -1.37,-1.94 -1.34,-1.89 -1.31,-1.86 -1.29,-1.83 -1.26,-1.78 -1.24,-1.75 -1.21,-1.72 -1.19,-1.68 -1.17,-1.65 -1.15,-1.62 -1.12,-1.59 -1.11,-1.56 -1.08,-1.52 -1.07,-1.5 -1.05,-1.47 -1.03,-1.44 -1.01,-1.42 -0.99,-1.39 -0.98,-1.37 -0.97,-1.34 -0.95,-1.32 -0.93,-1.3 -0.93,-1.28 -0.91,-1.26 -0.89,-1.23 -0.89,-1.22 -0.87,-1.2 -0.87,-1.19 -0.85,-1.16 -0.85,-1.16 -0.84,-1.13 -0.83,-1.13 -0.82,-1.11 -0.82,-1.1 -0.81,-1.09 -0.81,-1.08 -0.8,-1.06 -0.8,-1.06 -0.79,-1.05 -0.79,-1.05 -0.79,-1.04 -0.79,-1.03 -0.79,-1.03 -0.79,-1.02 -0.79,-1.03 -0.79,-1.02 -0.8,-1.02 -0.79,-1.01 -0.8,-1.02 -0.8,-1.02 -0.81,-1.03 -0.81,-1.02 -0.82,-1.03 -0.83,-1.04 -0.83,-1.04 -0.84,-1.04 -0.85,-1.05 -0.85,-1.07 -0.87,-1.07 -0.88,-1.08 -0.89,-1.09 -0.9,-1.1 -0.91,-1.11 -0.93,-1.13 -0.94,-1.14 -0.95,-1.15 -0.97,-1.18 -0.98,-1.18 -1,-1.21 -1.02,-1.22 -1.03,-1.24 -1.05,-1.26 -1.07,-1.28 -1.09,-1.31 -1.11,-1.32 -1.13,-1.35 -1.16,-1.37 -1.17,-1.4 -1.2,-1.42 -1.22,-1.45 -1.24,-1.48 -1.27,-1.5 -1.29,-1.54 -1.32,-1.56 -1.35,-1.59 -1.37,-1.63 -0.83,-0.98"
       style="fill:none;stroke:#000080;stroke-width:0.3;stroke-linecap:butt;stroke-linejoin:bevel;stroke-miterlimit:1;stroke-dasharray:none;stroke-opacity:1"
       id="path52" /><path
       d="m 234.17,206.54 -5.65,-13.83 12.7,7.87 z"
       style="fill:#000080;fill-opacity:1;fill-rule:nonzero;stroke:#000080;stroke-width:0.3;stroke-linecap:butt;stroke-linejoin:bevel;stroke-miterlimit:1;stroke-dasharray:none;stroke-opacity:1"
       id="path54" /><path
       d="m 321.4,305.25 -0.06,-0.41 -0.26,-1.83 -0.25,-1.79 -0.25,-1.75 -0.24,-1.72 -0.24,-1.68 -0.24,-1.66 -0.23,-1.62 -0.23,-1.59 -0.22,-1.56 -0.22,-1.53 -0.21,-1.5 -0.21,-1.47 -0.21,-1.45 -0.2,-1.42 -0.21,-1.39 -0.19,-1.37 -0.2,-1.35 -0.19,-1.32 -0.18,-1.3 -0.19,-1.29 -0.18,-1.26 -0.18,-1.24 -0.18,-1.22 -0.18,-1.21 -0.17,-1.18 -0.17,-1.18 -0.17,-1.15 -0.17,-1.14 -0.16,-1.13 -0.17,-1.12 -0.16,-1.1 -0.16,-1.1 -0.17,-1.08 -0.16,-1.07 -0.16,-1.07 -0.15,-1.05 -0.16,-1.05 -0.16,-1.05 -0.16,-1.04 -0.15,-1.03 -0.16,-1.03 -0.16,-1.03 -0.16,-1.02 -0.15,-1.03 -0.16,-1.02 -0.16,-1.03 -0.16,-1.03 -0.16,-1.02 -0.16,-1.04 -0.16,-1.03 -0.17,-1.04 -0.16,-1.05 -0.17,-1.05 -0.17,-1.06 -0.17,-1.07 -0.17,-1.08 -0.17,-1.09 -0.18,-1.09 -0.18,-1.11 -0.18,-1.12 -0.18,-1.14 -0.19,-1.15 -0.19,-1.16 -0.19,-1.18 -0.19,-1.19 -0.2,-1.22 -0.2,-1.23 -0.21,-1.25 -0.2,-1.27 -0.22,-1.29 -0.21,-1.31 -0.22,-1.33 -0.22,-1.36 -0.23,-1.38 -0.23,-1.41 -0.24,-1.43 -0.24,-1.46 -0.25,-1.48 -0.25,-1.52 -0.25,-1.54 -0.26,-1.57 -0.27,-1.6 -0.27,-1.64 -0.28,-1.67 -0.28,-1.7 -0.29,-1.73 -0.29,-1.77 -0.01,-0.05"
       style="fill:none;stroke:#000080;stroke-width:1.16;stroke-linecap:butt;stroke-linejoin:bevel;stroke-miterlimit:1;stroke-dasharray:none;stroke-opacity:1"
       id="path56" /><path
       d="m 301.86,207.49 2.22,-14.78 6.89,13.26 z"
       style="fill:#000080;fill-opacity:1;fill-rule:nonzero;stroke:#000080;stroke-width:1.16;stroke-linecap:butt;stroke-linejoin:bevel;stroke-miterlimit:1;stroke-dasharray:none;stroke-opacity:1"
       id="path58" /><path
       d="m 325.81,305.25 0.07,-0.3 0.92,-3.73 0.9,-3.65 0.88,-3.58 0.86,-3.51 0.85,-3.44 0.83,-3.38 0.82,-3.3 0.79,-3.25 0.79,-3.18 0.76,-3.12 0.75,-3.06 0.74,-3.01 0.73,-2.94 0.71,-2.9 0.69,-2.84 0.69,-2.79 0.67,-2.75 0.66,-2.69 0.64,-2.65 0.64,-2.61 0.62,-2.56 0.62,-2.52 0.6,-2.49 0.59,-2.44 0.59,-2.42 0.57,-2.37 0.57,-2.35 0.56,-2.31 0.55,-2.29 0.54,-2.25 0.54,-2.24 0.52,-2.21 0.53,-2.18 0.51,-2.17 0.51,-2.14 0.51,-2.13 0.5,-2.12 0.5,-2.1 0.49,-2.08 0.49,-2.08 0.48,-2.07 0.48,-2.06 0.48,-2.06 0.48,-2.05 0.48,-2.05 0.47,-2.05 0.47,-2.05 0.48,-2.05 0.47,-2.06 0.47,-2.06 0.48,-2.07 0.47,-2.08 0.48,-2.09 0.47,-2.11 0.48,-2.12 0.48,-2.13 0.49,-2.15 0.49,-2.18 0.49,-2.19 0.49,-2.22 0.5,-2.24 0.51,-2.26 0.51,-2.3 0.51,-2.32 0.52,-2.36 0.53,-2.39 0.54,-2.42 0.54,-2.46 0.55,-2.5 0.55,-2.53 0.57,-2.58 0.57,-2.62 0.59,-2.66 0.59,-2.72 0.6,-2.75 0.61,-2.81 0.63,-2.86 0.63,-2.92 0.64,-2.96 0.66,-3.03 0.67,-3.08 0.68,-3.14 0.7,-3.2 0.7,-3.27 0.72,-3.33 0.74,-3.39 0.75,-3.47 0.76,-3.53 0.78,-3.6 0.8,-3.68 0.81,-3.75 0.83,-3.83 0.84,-3.91 0.19,-0.86"
       style="fill:none;stroke:#000080;stroke-width:0.14;stroke-linecap:butt;stroke-linejoin:bevel;stroke-miterlimit:1;stroke-dasharray:none;stroke-opacity:1"
       id="path60" /><path
       d="m 375.49,70.4 7.52,-12.91 1.51,14.87 z"
       style="fill:#000080;fill-opacity:1;fill-rule:nonzero;stroke:#000080;stroke-width:0.14;stroke-linecap:butt;stroke-linejoin:bevel;stroke-miterlimit:1;stroke-dasharray:none;stroke-opacity:1"
       id="path62" /><path
       d="m 392.61,305.25 -2.26,-1.87 -2.47,-2.04 -2.42,-2.01 -2.38,-1.97 -2.33,-1.92 -2.28,-1.89 -2.24,-1.85 -2.2,-1.81 -2.15,-1.78 -2.12,-1.74 -2.07,-1.71 -2.04,-1.67 -2,-1.64 -1.96,-1.61 -1.93,-1.57 -1.9,-1.55 -1.86,-1.52 -1.83,-1.48 -1.8,-1.46 -1.77,-1.44 -1.74,-1.4 -1.72,-1.38 -1.69,-1.36 -1.67,-1.33 -1.64,-1.31 -1.62,-1.28 -1.6,-1.27 -1.58,-1.25 -1.57,-1.22 -1.54,-1.21 -1.53,-1.19 -1.51,-1.17 -1.5,-1.15 -1.48,-1.14 -1.48,-1.13 -1.46,-1.11 -1.46,-1.1 -1.44,-1.08 -1.44,-1.08 -1.43,-1.06 -1.43,-1.06 -1.42,-1.04 -1.42,-1.04 -1.43,-1.03 -1.42,-1.03 -1.42,-1.02 -1.42,-1.01 -1.43,-1.01 -1.43,-1.01 -1.43,-1.01 -1.45,-1 -1.45,-1.01 -1.46,-1 -1.47,-1.01 -1.48,-1.01 -1.49,-1.01 -1.51,-1.01 -1.53,-1.02 -1.53,-1.03 -1.56,-1.03 -1.58,-1.04 -1.59,-1.04 -1.61,-1.06 -1.64,-1.06 -1.66,-1.08 -1.68,-1.08 -1.71,-1.1 -1.74,-1.11 -1.76,-1.13 -1.79,-1.14 -1.82,-1.15 -1.86,-1.17 -1.88,-1.19 -1.92,-1.21 -1.95,-1.22 -1.99,-1.25 -2.02,-1.26 -2.07,-1.29 -2.1,-1.31 -2.14,-1.33 -2.19,-1.36 -2.22,-1.38 -2.27,-1.4 -2.32,-1.43 -2.36,-1.46 -2.41,-1.49 -2.46,-1.51 -1.64,-1.02"
       style="fill:none;stroke:#000080;stroke-width:1.95;stroke-linecap:butt;stroke-linejoin:bevel;stroke-miterlimit:1;stroke-dasharray:none;stroke-opacity:1"
       id="path64" /><path
       d="m 245.62,203.23 -9.68,-11.39 14.52,3.52 z"
       style="fill:#000080;fill-opacity:1;fill-rule:nonzero;stroke:#000080;stroke-width:1.95;stroke-linecap:butt;stroke-linejoin:bevel;stroke-miterlimit:1;stroke-dasharray:none;stroke-opacity:1"
       id="path66" /><path
       d="m 398.29,305.25 -0.81,-1.14 -1.36,-1.94 -1.34,-1.89 -1.32,-1.86 -1.28,-1.83 -1.27,-1.78 -1.23,-1.75 -1.22,-1.72 -1.19,-1.68 -1.17,-1.65 -1.14,-1.62 -1.13,-1.59 -1.1,-1.56 -1.09,-1.52 -1.07,-1.5 -1.04,-1.47 -1.03,-1.44 -1.01,-1.42 -1,-1.39 -0.98,-1.37 -0.96,-1.34 -0.95,-1.32 -0.94,-1.3 -0.92,-1.28 -0.91,-1.26 -0.9,-1.23 -0.88,-1.22 -0.88,-1.2 -0.86,-1.19 -0.86,-1.16 -0.85,-1.16 -0.83,-1.13 -0.83,-1.13 -0.83,-1.11 -0.81,-1.1 -0.82,-1.09 -0.8,-1.08 -0.8,-1.06 -0.8,-1.06 -0.8,-1.05 -0.79,-1.05 -0.79,-1.04 -0.79,-1.03 -0.79,-1.03 -0.79,-1.02 -0.79,-1.03 -0.79,-1.02 -0.79,-1.02 -0.8,-1.01 -0.8,-1.02 -0.8,-1.02 -0.81,-1.03 -0.81,-1.02 -0.82,-1.03 -0.82,-1.04 -0.83,-1.04 -0.84,-1.04 -0.85,-1.05 -0.86,-1.07 -0.87,-1.07 -0.87,-1.08 -0.89,-1.09 -0.9,-1.1 -0.92,-1.11 -0.92,-1.13 -0.94,-1.14 -0.95,-1.15 -0.97,-1.18 -0.99,-1.18 -1,-1.21 -1.01,-1.22 -1.04,-1.24 -1.05,-1.26 -1.07,-1.28 -1.09,-1.31 -1.11,-1.32 -1.13,-1.35 -1.15,-1.37 -1.18,-1.4 -1.19,-1.42 -1.22,-1.45 -1.25,-1.48 -1.26,-1.5 -1.3,-1.54 -1.32,-1.56 -1.34,-1.59 -1.37,-1.63 -0.84,-0.98"
       style="fill:none;stroke:#000080;stroke-width:4.27;stroke-linecap:butt;stroke-linejoin:bevel;stroke-miterlimit:1;stroke-dasharray:none;stroke-opacity:1"
       id="path68" /><path
       d="m 317.43,206.54 -5.65,-13.83 12.71,7.87 z"
       style="fill:#000080;fill-opacity:1;fill-rule:nonzero;stroke:#000080;stroke-width:4.27;stroke-linecap:butt;stroke-linejoin:bevel;stroke-miterlimit:1;stroke-dasharray:none;stroke-opacity:1"
       id="path70" /><path
       d="m 405.52,305.25 -0.05,-0.68 -0.25,-3.84 -0.25,-3.77 -0.25,-3.7 -0.24,-3.62 -0.24,-3.55 -0.23,-3.48 -0.23,-3.41 -0.23,-3.35 -0.22,-3.28 -0.21,-3.21 -0.22,-3.16 -0.2,-3.09 -0.21,-3.04 -0.2,-2.98 -0.2,-2.93 -0.19,-2.87 -0.19,-2.82 -0.19,-2.77 -0.19,-2.72 -0.18,-2.68 -0.18,-2.63 -0.18,-2.59 -0.18,-2.54 -0.17,-2.51 -0.17,-2.47 -0.17,-2.43 -0.17,-2.4 -0.16,-2.36 -0.17,-2.33 -0.16,-2.31 -0.16,-2.27 -0.16,-2.25 -0.16,-2.22 -0.16,-2.2 -0.16,-2.18 -0.15,-2.16 -0.16,-2.14 -0.15,-2.12 -0.16,-2.11 -0.16,-2.09 -0.15,-2.09 -0.16,-2.07 -0.15,-2.07 -0.16,-2.06 -0.15,-2.05 -0.16,-2.05 -0.16,-2.05 -0.16,-2.05 -0.16,-2.05 -0.16,-2.06 -0.16,-2.06 -0.16,-2.07 -0.17,-2.07 -0.16,-2.09 -0.17,-2.1 -0.17,-2.11 -0.18,-2.13 -0.17,-2.14 -0.18,-2.16 -0.18,-2.18 -0.18,-2.21 -0.18,-2.23 -0.19,-2.25 -0.19,-2.28 -0.19,-2.31 -0.2,-2.34 -0.2,-2.37 -0.2,-2.4 -0.21,-2.44 -0.21,-2.48 -0.21,-2.51 -0.22,-2.56 -0.22,-2.6 -0.23,-2.64 -0.23,-2.68 -0.23,-2.74 -0.24,-2.78 -0.25,-2.83 -0.25,-2.89 -0.25,-2.93 -0.26,-3 -0.26,-3.05 -0.27,-3.1 -0.28,-3.17 -0.28,-3.23 -0.29,-3.3 -0.29,-3.36 -0.3,-3.42 -0.3,-3.5 -0.31,-3.57 -0.32,-3.63 -0.33,-3.72 -0.33,-3.78 -0.04,-0.49"
       style="fill:none;stroke:#000080;stroke-width:0.09;stroke-linecap:butt;stroke-linejoin:bevel;stroke-miterlimit:1;stroke-dasharray:none;stroke-opacity:1"
       id="path72" /><path
       d="m 383.09,72.05 3.36,-14.56 5.84,13.76 z"
       style="fill:#000080;fill-opacity:1;fill-rule:nonzero;stroke:#000080;stroke-width:0.09;stroke-linecap:butt;stroke-linejoin:bevel;stroke-miterlimit:1;stroke-dasharray:none;stroke-opacity:1"
       id="path74" /><path
       d="m 431.63,305.25 -0.12,-0.08 -3.09,-2.15 -3.02,-2.1 -2.97,-2.06 -2.9,-2.02 -2.86,-1.98 -2.79,-1.94 -2.74,-1.9 -2.69,-1.86 -2.64,-1.83 -2.59,-1.78 -2.53,-1.75 -2.5,-1.72 -2.44,-1.68 -2.41,-1.65 -2.36,-1.61 -2.31,-1.59 -2.28,-1.55 -2.24,-1.52 -2.21,-1.49 -2.16,-1.47 -2.14,-1.43 -2.1,-1.41 -2.07,-1.39 -2.03,-1.36 -2.01,-1.33 -1.99,-1.31 -1.96,-1.29 -1.93,-1.27 -1.91,-1.25 -1.89,-1.22 -1.87,-1.21 -1.85,-1.19 -1.83,-1.17 -1.82,-1.15 -1.8,-1.14 -1.79,-1.12 -1.77,-1.11 -1.77,-1.1 -1.76,-1.08 -1.75,-1.07 -1.75,-1.06 -1.74,-1.05 -1.74,-1.04 -1.73,-1.04 -1.74,-1.02 -1.73,-1.02 -1.74,-1.01 -1.75,-1.01 -1.74,-1 -1.76,-1 -1.76,-1 -1.78,-0.99 -1.78,-1 -1.8,-0.99 -1.81,-1 -1.82,-1 -1.84,-0.99 -1.86,-1.01 -1.88,-1 -1.91,-1.02 -1.92,-1.01 -1.94,-1.03 -1.98,-1.03 -2,-1.04 -2.02,-1.05 -2.06,-1.06 -2.08,-1.07 -2.12,-1.08 -2.15,-1.09 -2.19,-1.11 -2.23,-1.12 -2.26,-1.14 -2.3,-1.15 -2.34,-1.17 -2.38,-1.18 -2.43,-1.21 -2.47,-1.22 -2.52,-1.24 -2.57,-1.27 -2.61,-1.28 -2.67,-1.31 -2.72,-1.33 -2.77,-1.36 -2.83,-1.38 -2.88,-1.41 -2.94,-1.43 -3,-1.46 -3.06,-1.49 -2.7,-1.31"
       style="fill:none;stroke:#000080;stroke-width:0.51;stroke-linecap:butt;stroke-linejoin:bevel;stroke-miterlimit:1;stroke-dasharray:none;stroke-opacity:1"
       id="path76" /><path
       d="m 246.7,200 -10.76,-10.36 14.8,2.05 z"
       style="fill:#000080;fill-opacity:1;fill-rule:nonzero;stroke:#000080;stroke-width:0.51;stroke-linecap:butt;stroke-linejoin:bevel;stroke-miterlimit:1;stroke-dasharray:none;stroke-opacity:1"
       id="path78" /><path
       d="m 437,305.25 -1.45,-1.5 -1.92,-1.99 -1.88,-1.96 -1.84,-1.91 -1.81,-1.88 -1.78,-1.83 -1.73,-1.8 -1.71,-1.77 -1.67,-1.73 -1.64,-1.69 -1.62,-1.67 -1.58,-1.63 -1.55,-1.59 -1.52,-1.57 -1.5,-1.54 -1.47,-1.51 -1.45,-1.48 -1.42,-1.45 -1.4,-1.42 -1.37,-1.4 -1.36,-1.38 -1.33,-1.35 -1.31,-1.32 -1.3,-1.31 -1.27,-1.28 -1.26,-1.26 -1.25,-1.25 -1.22,-1.22 -1.22,-1.2 -1.2,-1.19 -1.18,-1.17 -1.18,-1.16 -1.16,-1.14 -1.16,-1.12 -1.14,-1.11 -1.14,-1.1 -1.13,-1.09 -1.13,-1.08 -1.11,-1.07 -1.12,-1.05 -1.11,-1.05 -1.1,-1.05 -1.11,-1.03 -1.1,-1.03 -1.11,-1.03 -1.1,-1.02 -1.11,-1.01 -1.11,-1.02 -1.11,-1.01 -1.12,-1.02 -1.13,-1.01 -1.12,-1.01 -1.14,-1.02 -1.15,-1.02 -1.15,-1.02 -1.16,-1.02 -1.18,-1.03 -1.18,-1.04 -1.2,-1.04 -1.21,-1.05 -1.23,-1.06 -1.24,-1.07 -1.26,-1.08 -1.27,-1.09 -1.29,-1.1 -1.31,-1.11 -1.34,-1.13 -1.35,-1.14 -1.37,-1.16 -1.4,-1.17 -1.42,-1.19 -1.44,-1.2 -1.47,-1.23 -1.49,-1.24 -1.52,-1.27 -1.55,-1.28 -1.58,-1.31 -1.61,-1.33 -1.64,-1.35 -1.66,-1.38 -1.71,-1.4 -1.73,-1.43 -1.77,-1.45 -1.81,-1.48 -1.84,-1.52 -1.87,-1.54 -1.92,-1.57 -0.69,-0.56"
       style="fill:none;stroke:#b22222;stroke-width:0.29;stroke-linecap:butt;stroke-linejoin:bevel;stroke-miterlimit:1;stroke-dasharray:none;stroke-opacity:1"
       id="path80" /><path
       d="m 324.11,205.29 -8.07,-12.58 13.92,5.43 z"
       style="fill:#b22222;fill-opacity:1;fill-rule:nonzero;stroke:#b22222;stroke-width:0.29;stroke-linecap:butt;stroke-linejoin:bevel;stroke-miterlimit:1;stroke-dasharray:none;stroke-opacity:1"
       id="path82" /><path
       d="m 445.46,305.25 -0.19,-0.86 -0.84,-3.91 -0.83,-3.83 -0.81,-3.75 -0.8,-3.68 -0.78,-3.6 -0.76,-3.54 -0.75,-3.46 -0.74,-3.39 -0.72,-3.33 -0.71,-3.27 -0.69,-3.2 -0.68,-3.14 -0.67,-3.08 -0.66,-3.03 -0.64,-2.96 -0.64,-2.92 -0.62,-2.86 -0.61,-2.81 -0.6,-2.75 -0.6,-2.72 -0.58,-2.66 -0.57,-2.62 -0.57,-2.58 -0.55,-2.54 -0.55,-2.49 -0.55,-2.46 -0.53,-2.42 -0.53,-2.39 -0.52,-2.36 -0.51,-2.32 -0.51,-2.3 -0.51,-2.26 -0.5,-2.24 -0.49,-2.22 -0.5,-2.19 -0.48,-2.18 -0.49,-2.15 -0.48,-2.13 -0.48,-2.12 -0.48,-2.11 -0.47,-2.09 -0.48,-2.08 -0.47,-2.07 -0.47,-2.06 -0.47,-2.06 -0.48,-2.05 -0.47,-2.05 -0.48,-2.05 -0.47,-2.05 -0.48,-2.05 -0.48,-2.06 -0.48,-2.06 -0.49,-2.07 -0.48,-2.08 -0.5,-2.08 -0.49,-2.1 -0.5,-2.12 -0.51,-2.13 -0.51,-2.14 -0.51,-2.17 -0.53,-2.18 -0.53,-2.21 -0.53,-2.24 -0.54,-2.25 -0.55,-2.29 -0.56,-2.31 -0.57,-2.35 -0.57,-2.38 -0.59,-2.41 -0.59,-2.44 -0.61,-2.49 -0.61,-2.52 -0.62,-2.56 -0.64,-2.61 -0.65,-2.65 -0.66,-2.69 -0.67,-2.75 -0.68,-2.79 -0.7,-2.84 -0.71,-2.9 -0.72,-2.95 -0.74,-3 -0.75,-3.06 -0.77,-3.12 -0.78,-3.18 -0.8,-3.25 -0.81,-3.3 -0.83,-3.38 -0.85,-3.44 -0.86,-3.51 -0.88,-3.58 -0.9,-3.65 -0.92,-3.73 -0.08,-0.3"
       style="fill:none;stroke:#000080;stroke-width:0.45;stroke-linecap:butt;stroke-linejoin:bevel;stroke-miterlimit:1;stroke-dasharray:none;stroke-opacity:1"
       id="path84" /><path
       d="m 387.17,72.39 1.08,-14.9 7.89,12.69 z"
       style="fill:#000080;fill-opacity:1;fill-rule:nonzero;stroke:#000080;stroke-width:0.45;stroke-linecap:butt;stroke-linejoin:bevel;stroke-miterlimit:1;stroke-dasharray:none;stroke-opacity:1"
       id="path86" /><path
       d="m 235.02,170.03 0.51,-0.36 2.18,-1.54 2.15,-1.51 2.1,-1.49 2.06,-1.45 2.02,-1.43 1.98,-1.41 1.94,-1.38 1.91,-1.35 1.87,-1.33 1.83,-1.31 1.8,-1.29 1.77,-1.26 1.74,-1.25 1.7,-1.22 1.68,-1.21 1.65,-1.19 1.62,-1.17 1.59,-1.15 1.57,-1.14 1.54,-1.13 1.52,-1.11 1.5,-1.1 1.48,-1.09 1.45,-1.08 1.44,-1.06 1.42,-1.06 1.4,-1.05 1.38,-1.04 1.37,-1.03 1.35,-1.03 1.34,-1.03 1.33,-1.01 1.32,-1.02 1.31,-1.01 1.3,-1.01 1.29,-1.01 1.28,-1.01 1.28,-1.01 1.27,-1.01 1.27,-1.01 1.26,-1.02 1.27,-1.02 1.26,-1.02 1.26,-1.03 1.26,-1.04 1.27,-1.04 1.27,-1.06 1.27,-1.06 1.28,-1.07 1.28,-1.08 1.3,-1.09 1.3,-1.11 1.31,-1.12 1.32,-1.13 1.33,-1.15 1.34,-1.16 1.36,-1.18 1.37,-1.2 1.39,-1.21 1.4,-1.24 1.42,-1.25 1.44,-1.28 1.46,-1.29 1.49,-1.32 1.5,-1.34 1.52,-1.37 1.55,-1.39 1.57,-1.41 1.6,-1.44 1.63,-1.47 1.65,-1.5 1.69,-1.53 1.71,-1.56 1.74,-1.58 1.78,-1.62 1.81,-1.65 1.84,-1.69 1.88,-1.72 1.91,-1.75 1.96,-1.79 1.98,-1.82 2.03,-1.87 2.07,-1.9 2.11,-1.94 2.15,-1.98 2.2,-2.02 1.83,-1.68"
       style="fill:none;stroke:#000080;stroke-width:0.15;stroke-linecap:butt;stroke-linejoin:bevel;stroke-miterlimit:1;stroke-dasharray:none;stroke-opacity:1"
       id="path88" /><path
       d="m 359.57,63.72 13.58,-6.23 -7.33,13.02 z"
       style="fill:#000080;fill-opacity:1;fill-rule:nonzero;stroke:#000080;stroke-width:0.15;stroke-linecap:butt;stroke-linejoin:bevel;stroke-miterlimit:1;stroke-dasharray:none;stroke-opacity:1"
       id="path90" /><path
       d="m 305.26,170.03 0.8,-1.19 1.1,-1.65 1.08,-1.62 1.06,-1.59 1.04,-1.56 1.01,-1.53 1,-1.5 0.98,-1.47 0.96,-1.45 0.94,-1.42 0.93,-1.39 0.9,-1.37 0.89,-1.35 0.88,-1.32 0.86,-1.3 0.84,-1.28 0.83,-1.26 0.82,-1.24 0.8,-1.22 0.79,-1.2 0.77,-1.19 0.77,-1.17 0.75,-1.15 0.74,-1.14 0.73,-1.13 0.72,-1.11 0.72,-1.1 0.7,-1.09 0.69,-1.08 0.69,-1.07 0.68,-1.06 0.67,-1.06 0.67,-1.05 0.66,-1.04 0.66,-1.03 0.65,-1.03 0.65,-1.03 0.64,-1.02 0.64,-1.03 0.63,-1.02 0.64,-1.02 0.63,-1.02 0.63,-1.02 0.63,-1.03 0.64,-1.03 0.63,-1.03 0.63,-1.03 0.63,-1.05 0.64,-1.04 0.64,-1.06 0.64,-1.06 0.64,-1.08 0.65,-1.08 0.65,-1.09 0.66,-1.1 0.66,-1.12 0.67,-1.13 0.68,-1.14 0.68,-1.16 0.69,-1.17 0.7,-1.19 0.71,-1.21 0.71,-1.23 0.73,-1.24 0.74,-1.26 0.74,-1.29 0.76,-1.3 0.77,-1.33 0.78,-1.35 0.8,-1.38 0.81,-1.4 0.82,-1.42 0.83,-1.45 0.85,-1.48 0.87,-1.51 0.88,-1.53 0.9,-1.57 0.91,-1.6 0.93,-1.62 0.95,-1.66 0.97,-1.69 0.99,-1.73 1.01,-1.76 1.02,-1.8 1.05,-1.83 1.07,-1.87 1.09,-1.91 0.54,-0.96"
       style="fill:none;stroke:#b22222;stroke-width:0.01;stroke-linecap:butt;stroke-linejoin:bevel;stroke-miterlimit:1;stroke-dasharray:none;stroke-opacity:1"
       id="path92" /><path
       d="m 367.94,67.55 11.05,-10.06 -3.03,14.63 z"
       style="fill:#b22222;fill-opacity:1;fill-rule:nonzero;stroke:#b22222;stroke-width:0.01;stroke-linecap:butt;stroke-linejoin:bevel;stroke-miterlimit:1;stroke-dasharray:none;stroke-opacity:1"
       id="path94" /><text
       transform="matrix(0.15274034,0.98826636,0.98826636,-0.15274034,0,0)"
       style="font-variant:normal;font-weight:normal;font-size:10.9991px;font-family:Helvetica;-inkscape-font-specification:Helvetica;writing-mode:lr-tb;fill:#000000;fill-opacity:1;fill-rule:nonzero;stroke:none"
       id="text98"
       x="274.05557"
       y="185.3454"><tspan
         x="274.05557"
         y="185.3454"
         id="tspan96">0</tspan></text><text
       transform="matrix(0.41900054,-0.90798598,-0.90798598,-0.41900054,0,0)"
       style="font-variant:normal;font-weight:normal;font-size:11.0024px;font-family:Helvetica;-inkscape-font-specification:Helvetica;writing-mode:lr-tb;fill:#000000;fill-opacity:1;fill-rule:nonzero;stroke:none"
       id="text102"
       x="-161.87106"
       y="-341.89337"><tspan
         x="-161.87106 -155.44571 -149.32838 -146.2697"
         y="-341.89337"
         sodipodi:role="line"
         id="tspan100">−0.1</tspan></text><text
       transform="matrix(0.4735577,-0.8807628,-0.8807628,-0.4735577,0,0)"
       style="font-variant:normal;font-weight:normal;font-size:11.0018px;font-family:Helvetica;-inkscape-font-specification:Helvetica;writing-mode:lr-tb;fill:#000000;fill-opacity:1;fill-rule:nonzero;stroke:none"
       id="text106"
       x="5.8447194"
       y="-365.67429"><tspan
         x="5.8447194 12.269786 18.386803 21.445309"
         y="-365.67429"
         sodipodi:role="line"
         id="tspan104">−0.02</tspan></text><text
       transform="matrix(0.42009583,0.90747975,0.90747975,-0.42009583,0,0)"
       style="font-variant:normal;font-weight:normal;font-size:10.9975px;font-family:Helvetica;-inkscape-font-specification:Helvetica;writing-mode:lr-tb;fill:#000000;fill-opacity:1;fill-rule:nonzero;stroke:none"
       id="text110"
       x="307.03821"
       y="121.45114"><tspan
         x="307.03821 313.46075 319.57535 322.63266 328.74728"
         y="121.45114"
         sodipodi:role="line"
         id="tspan108">−0.02</tspan></text><text
       transform="matrix(0.1518522,-0.98840321,-0.98840321,-0.1518522,0,0)"
       style="font-variant:normal;font-weight:normal;font-size:10.9975px;font-family:Helvetica;-inkscape-font-specification:Helvetica;writing-mode:lr-tb;fill:#000000;fill-opacity:1;fill-rule:nonzero;stroke:none"
       id="text114"
       x="-248.49078"
       y="-317.09122"><tspan
         x="-248.49078 -242.37616 -239.31883"
         y="-317.09122"
         sodipodi:role="line"
         id="tspan112">0.01</tspan></text><text
       transform="matrix(0.35897908,-0.93334561,-0.93334561,-0.35897908,0,0)"
       style="font-variant:normal;font-weight:normal;font-size:11.0034px;font-family:Helvetica;-inkscape-font-specification:Helvetica;writing-mode:lr-tb;fill:#000000;fill-opacity:1;fill-rule:nonzero;stroke:none"
       id="text118"
       x="-41.750015"
       y="-380.25272"><tspan
         x="-41.750015 -35.324013 -29.206104 -26.147146"
         y="-380.25272"
         sodipodi:role="line"
         id="tspan116">−0.02</tspan></text><text
       transform="matrix(0.6108523,0.79174457,0.79174457,-0.6108523,0,0)"
       style="font-variant:normal;font-weight:normal;font-size:11.001px;font-family:Helvetica;-inkscape-font-specification:Helvetica;writing-mode:lr-tb;fill:#000000;fill-opacity:1;fill-rule:nonzero;stroke:none"
       id="text122"
       x="405.22815"
       y="61.908512"><tspan
         x="405.22815 411.34473 414.40302 420.51959"
         y="61.908512"
         sodipodi:role="line"
         id="tspan120">0.03</tspan></text><text
       transform="matrix(0.15274034,0.98826636,0.98826636,-0.15274034,0,0)"
       style="font-variant:normal;font-weight:normal;font-size:10.9991px;font-family:Helvetica;-inkscape-font-specification:Helvetica;writing-mode:lr-tb;fill:#000000;fill-opacity:1;fill-rule:nonzero;stroke:none"
       id="text126"
       x="307.07407"
       y="281.53101"><tspan
         x="307.07407 313.18954 316.24728 322.36276"
         y="281.53101"
         sodipodi:role="line"
         id="tspan124">0.13</tspan></text><text
       transform="matrix(0.22452755,-0.97446774,-0.97446774,-0.22452755,0,0)"
       style="font-variant:normal;font-weight:normal;font-size:11.0009px;font-family:Helvetica;-inkscape-font-specification:Helvetica;writing-mode:lr-tb;fill:#000000;fill-opacity:1;fill-rule:nonzero;stroke:none"
       id="text130"
       x="-89.282845"
       y="-391.96417"><tspan
         x="-89.282845 -83.166359 -83.166359 -73.991631"
         y="-391.96417"
         sodipodi:role="line"
         id="tspan128">0.12</tspan></text><text
       transform="matrix(0.8115171,0.58432867,0.58432867,-0.8115171,0,0)"
       style="font-variant:normal;font-weight:normal;font-size:11.0041px;font-family:Helvetica;-inkscape-font-specification:Helvetica;writing-mode:lr-tb;fill:#000000;fill-opacity:1;fill-rule:nonzero;stroke:none"
       id="text134"
       x="442.81232"
       y="-19.731234"><tspan
         x="442.81232 448.9306 451.98975 458.108"
         y="-19.731234"
         sodipodi:role="line"
         id="tspan132">0.22</tspan></text><text
       transform="matrix(0.6108523,0.79174457,0.79174457,-0.6108523,0,0)"
       style="font-variant:normal;font-weight:normal;font-size:11.001px;font-family:Helvetica;-inkscape-font-specification:Helvetica;writing-mode:lr-tb;fill:#000000;fill-opacity:1;fill-rule:nonzero;stroke:none"
       id="text138"
       x="427.27789"
       y="127.32195"><tspan
         x="427.27789 433.39447 436.45276 442.56934"
         y="127.32195"
         sodipodi:role="line"
         id="tspan136">0.48</tspan></text><text
       transform="matrix(0.07725249,0.99701156,0.99701156,-0.07725249,0,0)"
       style="font-variant:normal;font-weight:normal;font-size:11.0029px;font-family:Helvetica;-inkscape-font-specification:Helvetica;writing-mode:lr-tb;fill:#000000;fill-opacity:1;fill-rule:nonzero;stroke:none"
       id="text142"
       x="187.10902"
       y="378.49649"><tspan
         x="187.10902 193.22662 196.28543 202.40303"
         y="378.49649"
         sodipodi:role="line"
         id="tspan140">0.01</tspan></text><text
       transform="matrix(0.86179397,0.50725847,0.50725847,-0.86179397,0,0)"
       style="font-variant:normal;font-weight:normal;font-size:11.0003px;font-family:Helvetica;-inkscape-font-specification:Helvetica;writing-mode:lr-tb;fill:#000000;fill-opacity:1;fill-rule:nonzero;stroke:none"
       id="text146"
       x="497.53613"
       y="-45.150959"><tspan
         x="497.53613 503.65228 506.71039"
         y="-45.150959"
         sodipodi:role="line"
         id="tspan144">0.04</tspan></text><text
       transform="matrix(0.73386141,0.67929922,0.67929922,-0.73386141,0,0)"
       style="font-variant:normal;font-weight:normal;font-size:10.9966px;font-family:Helvetica;-inkscape-font-specification:Helvetica;writing-mode:lr-tb;fill:#000000;fill-opacity:1;fill-rule:nonzero;stroke:none"
       id="text150"
       x="491.90335"
       y="85.73745"><tspan
         x="491.90335 498.32538 504.43951 507.49658"
         y="85.73745"
         sodipodi:role="line"
         id="tspan148">−0.02</tspan></text><text
       transform="matrix(0.22539048,0.97426851,0.97426851,-0.22539048,0,0)"
       style="font-variant:normal;font-weight:normal;font-size:11.0031px;font-family:Helvetica;-inkscape-font-specification:Helvetica;writing-mode:lr-tb;fill:#000000;fill-opacity:1;fill-rule:nonzero;stroke:none"
       id="text154"
       x="244.05014"
       y="378.81073"><tspan
         x="244.05014 250.16792 253.22679 259.34457"
         y="378.81073"
         sodipodi:role="line"
         id="tspan152">0.05</tspan></text><text
       transform="matrix(0.77525147,-0.63165272,-0.63165272,-0.77525147,0,0)"
       style="font-variant:normal;font-weight:normal;font-size:11.0029px;font-family:Helvetica;-inkscape-font-specification:Helvetica;writing-mode:lr-tb;fill:#000000;fill-opacity:1;fill-rule:nonzero;stroke:none"
       id="text158"
       x="130.05977"
       y="-273.06308"><tspan
         x="130.05977 136.17737 139.23618"
         y="-273.06308"
         sodipodi:role="line"
         id="tspan156">0.01</tspan></text><text
       transform="matrix(0.52369155,-0.85190795,-0.85190795,-0.52369155,0,0)"
       style="font-variant:normal;font-weight:normal;font-size:10.9988px;font-family:Helvetica;-inkscape-font-specification:Helvetica;writing-mode:lr-tb;fill:#000000;fill-opacity:1;fill-rule:nonzero;stroke:none"
       id="text162"
       x="76.767754"
       y="-343.88391"><tspan
         x="76.767754"
         y="-343.88391"
         id="tspan160">0</tspan></text><text
       transform="scale(1,-1)"
       style="font-variant:normal;font-weight:normal;font-size:17px;font-family:Helvetica;-inkscape-font-specification:Helvetica;writing-mode:lr-tb;fill:#000000;fill-opacity:1;fill-rule:nonzero;stroke:none"
       id="text166"
       x="36.810001"
       y="-310.48999"><tspan
         x="36.810001 49.084 58.535999"
         y="-310.48999"
         sodipodi:role="line"
         id="tspan164">C2n</tspan></text><text
       transform="scale(1,-1)"
       style="font-variant:normal;font-weight:normal;font-size:17px;font-family:Helvetica;-inkscape-font-specification:Helvetica;writing-mode:lr-tb;fill:#000000;fill-opacity:1;fill-rule:nonzero;stroke:none"
       id="text170"
       x="77.5"
       y="-310.48999"><tspan
         x="77.5 89.774002 101.113"
         y="-310.48999"
         sodipodi:role="line"
         id="tspan168">RB4</tspan></text><text
       transform="scale(1,-1)"
       style="font-variant:normal;font-weight:normal;font-size:17px;font-family:Helvetica;-inkscape-font-specification:Helvetica;writing-mode:lr-tb;fill:#000000;fill-opacity:1;fill-rule:nonzero;stroke:none"
       id="text174"
       x="122.44"
       y="-310.48999"><tspan
         x="122.44 134.714 144.166"
         y="-310.48999"
         sodipodi:role="line"
         id="tspan172">RLI</tspan></text><text
       transform="scale(1,-1)"
       style="font-variant:normal;font-weight:normal;font-size:17px;font-family:Helvetica;-inkscape-font-specification:Helvetica;writing-mode:lr-tb;fill:#000000;fill-opacity:1;fill-rule:nonzero;stroke:none"
       id="text178"
       x="158.89"
       y="-310.48999"><tspan
         x="158.89 171.164 183.438"
         y="-310.48999"
         sodipodi:role="line"
         id="tspan176">RCU</tspan></text><text
       transform="scale(1,-1)"
       style="font-variant:normal;font-weight:normal;font-size:17px;font-family:Helvetica;-inkscape-font-specification:Helvetica;writing-mode:lr-tb;fill:#000000;fill-opacity:1;fill-rule:nonzero;stroke:none"
       id="text182"
       x="224.63"
       y="-310.48999"><tspan
         x="224.63 235.96899 245.42101"
         y="-310.48999"
         sodipodi:role="line"
         id="tspan180">B12</tspan></text><text
       transform="scale(1,-1)"
       style="font-variant:normal;font-weight:normal;font-size:17px;font-family:Helvetica;-inkscape-font-specification:Helvetica;writing-mode:lr-tb;fill:#000000;fill-opacity:1;fill-rule:nonzero;stroke:none"
       id="text186"
       x="270.98001"
       y="-310.48999"><tspan
         x="270.98001 282.319"
         y="-310.48999"
         sodipodi:role="line"
         id="tspan184">B7</tspan></text><text
       transform="scale(1,-1)"
       style="font-variant:normal;font-weight:normal;font-size:17px;font-family:Helvetica;-inkscape-font-specification:Helvetica;writing-mode:lr-tb;fill:#000000;fill-opacity:1;fill-rule:nonzero;stroke:none"
       id="text190"
       x="312.62"
       y="-310.48999"><tspan
         x="312.62 323.95901"
         y="-310.48999"
         sodipodi:role="line"
         id="tspan188">B4</tspan></text><text
       transform="scale(1,-1)"
       style="font-variant:normal;font-weight:normal;font-size:17px;font-family:Helvetica;-inkscape-font-specification:Helvetica;writing-mode:lr-tb;fill:#000000;fill-opacity:1;fill-rule:nonzero;stroke:none"
       id="text194"
       x="395.88"
       y="-310.48999"><tspan
         x="395.88 407.21899"
         y="-310.48999"
         sodipodi:role="line"
         id="tspan192">B1</tspan></text><text
       transform="scale(1,-1)"
       style="font-variant:normal;font-weight:normal;font-size:17px;font-family:Helvetica;-inkscape-font-specification:Helvetica;writing-mode:lr-tb;fill:#000000;fill-opacity:1;fill-rule:nonzero;stroke:none"
       id="text198"
       x="432.32001"
       y="-310.48999"><tspan
         x="432.32001 444.59399 454.04599"
         y="-310.48999"
         sodipodi:role="line"
         id="tspan196">R2n</tspan></text><text
       transform="scale(1,-1)"
       style="font-variant:normal;font-weight:normal;font-size:17px;font-family:Helvetica;-inkscape-font-specification:Helvetica;writing-mode:lr-tb;fill:#000000;fill-opacity:1;fill-rule:nonzero;stroke:none"
       id="text202"
       x="211.84"
       y="-175.27"><tspan
         x="211.84 221.29199"
         y="-175.27"
         sodipodi:role="line"
         id="tspan200">LI</tspan></text><text
       transform="scale(1,-1)"
       style="font-variant:normal;font-weight:normal;font-size:17px;font-family:Helvetica;-inkscape-font-specification:Helvetica;writing-mode:lr-tb;fill:#000000;fill-opacity:1;fill-rule:nonzero;stroke:none"
       id="text206"
       x="289.92001"
       y="-175.27"><tspan
         x="289.92001 302.194"
         y="-175.27"
         sodipodi:role="line"
         id="tspan204">CU</tspan></text><text
       transform="scale(1,-1)"
       style="font-variant:normal;font-weight:normal;font-size:17px;font-family:Helvetica;-inkscape-font-specification:Helvetica;writing-mode:lr-tb;fill:#000000;fill-opacity:1;fill-rule:nonzero;stroke:none"
       id="text210"
       x="376.95999"
       y="-40.049999"><tspan
         x="376.95999 389.23401"
         y="-40.049999"
         sodipodi:role="line"
         id="tspan208">DI</tspan></text><g
       id="g212" /><g
       id="g214" /><g
       id="g216" /><g
       id="g218" /><g
       id="g220" /><g
       id="g222" /><g
       id="g224" /><g
       id="g226" /><g
       id="g228" /><g
       id="g230" /><g
       id="g232" /><g
       id="g234" /><g
       id="g236" /><g
       id="g238" /><g
       id="g240" /><g
       id="g242" /><g
       id="g244" /><g
       id="g246" /><g
       id="g248" /><g
       id="g250" /><g
       id="g252" /><g
       id="g254" /><g
       id="g256" /><g
       id="g258" /><g
       id="g260" /><g
       id="g262" /><g
       id="g264" /><g
       id="g266" /><g
       id="g268" /><g
       id="g270" /><g
       id="g272" /><g
       id="g274" /><g
       id="g276" /><g
       id="g278" /><g
       id="g280" /><g
       id="g282" /><g
       id="g284" /><g
       id="g286" /><g
       id="g288" /><g
       id="g290" /><g
       id="g292" /><g
       id="g294" /><g
       id="g296" /><g
       id="g298" /><g
       id="g300" /><g
       id="g302"><path
         d="m 485.85,187.27 h 13.83"
         style="fill:none;stroke:#000080;stroke-width:1.07;stroke-linecap:butt;stroke-linejoin:round;stroke-miterlimit:10;stroke-dasharray:none;stroke-opacity:1"
         id="path304" /><path
         d="m 485.46,182.65 14.22,4.62 -14.22,4.62 z"
         style="fill:none;stroke:#000080;stroke-width:1.07;stroke-linecap:butt;stroke-linejoin:round;stroke-miterlimit:10;stroke-dasharray:none;stroke-opacity:1"
         id="path306" /></g><g
       id="g308" /><g
       id="g310" /><g
       id="g312" /><g
       id="g314"><path
         d="m 485.85,169.99 h 13.83"
         style="fill:none;stroke:#b22222;stroke-width:1.07;stroke-linecap:butt;stroke-linejoin:round;stroke-miterlimit:10;stroke-dasharray:none;stroke-opacity:1"
         id="path316" /><path
         d="m 485.46,165.37 14.22,4.62 -14.22,4.62 z"
         style="fill:none;stroke:#b22222;stroke-width:1.07;stroke-linecap:butt;stroke-linejoin:round;stroke-miterlimit:10;stroke-dasharray:none;stroke-opacity:1"
         id="path318" /></g><g
       id="g320" /><g
       id="g322" /><g
       id="g324" /><g
       id="g326"><text
         transform="matrix(1,0,0,-1,506.88,184.04)"
         style="font-variant:normal;font-weight:normal;font-size:9px;font-family:Helvetica;-inkscape-font-specification:Helvetica;writing-mode:lr-tb;fill:#000000;fill-opacity:1;fill-rule:nonzero;stroke:none"
         id="text330"><tspan
           x="0 5.0040002 10.008 14.508 16.506001 19.007999 21.006001 25.281"
           y="0"
           sodipodi:role="line"
           id="tspan328">positive</tspan></text></g><g
       id="g332" /><g
       id="g334" /><g
       id="g336" /><g
       id="g338" /><g
       id="g340"><text
         transform="matrix(1,0,0,-1,506.88,166.76)"
         style="font-variant:normal;font-weight:normal;font-size:9px;font-family:Helvetica;-inkscape-font-specification:Helvetica;writing-mode:lr-tb;fill:#000000;fill-opacity:1;fill-rule:nonzero;stroke:none"
         id="text344"><tspan
           x="0 5.0040002 10.008 15.012 20.016001 22.518 24.516001 28.791"
           y="0"
           sodipodi:role="line"
           id="tspan342">negative</tspan></text></g><g
       id="g346" /><g
       id="g348" /><g
       id="g350" /><g
       id="g352" /><g
       id="g354" /><g
       id="g356" /><g
       id="g358" /><g
       id="g360" /><g
       id="g362" /><g
       id="g364" /><g
       id="g366" /><g
       id="g368" /><g
       id="g370" /></g></svg>
