<?xml version="1.0" encoding="UTF-8" standalone="no"?>
<!-- Created with Inkscape (http://www.inkscape.org/) -->

<svg
   version="1.1"
   id="svg2"
   xml:space="preserve"
   width="768"
   height="480"
   viewBox="0 0 768 480"
   sodipodi:docname="bestmodel.both.edited2.svg"
   inkscape:version="1.1 (ce6663b3b7, 2021-05-25)"
   xmlns:inkscape="http://www.inkscape.org/namespaces/inkscape"
   xmlns:sodipodi="http://sodipodi.sourceforge.net/DTD/sodipodi-0.dtd"
   xmlns="http://www.w3.org/2000/svg"
   xmlns:svg="http://www.w3.org/2000/svg"><defs
     id="defs6" /><sodipodi:namedview
     id="namedview4"
     pagecolor="#ffffff"
     bordercolor="#666666"
     borderopacity="1.0"
     inkscape:pageshadow="2"
     inkscape:pageopacity="0.0"
     inkscape:pagecheckerboard="0"
     showgrid="false"
     inkscape:zoom="1.7583333"
     inkscape:cx="384.17062"
     inkscape:cy="240.28436"
     inkscape:window-width="1848"
     inkscape:window-height="1016"
     inkscape:window-x="72"
     inkscape:window-y="27"
     inkscape:window-maximized="1"
     inkscape:current-layer="g8" /><g
     id="g8"
     inkscape:groupmode="layer"
     inkscape:label="bestmodel.both.edited"
     transform="matrix(1.3333333,0,0,1.3333333,0,1.2e-5)"><path
       d="M -8.7281693,-0.56314046 H 567.27183 V 359.43686 H -8.7281693 Z"
       style="fill:#ffffff;fill-opacity:1;fill-rule:nonzero;stroke:none"
       id="path12" /><g
       id="g14"
       transform="matrix(1,0,0,-1,-8.7281693,-0.56314046)"><path
         d="m 238.141,-54.75 -0.063,-0.41 -0.258,-1.828 -0.261,-1.793 -0.239,-1.75 -0.25,-1.719 -0.242,-1.68 -0.226,-1.66 -0.243,-1.621 -0.218,-1.59 -0.219,-1.558 -0.223,-1.532 -0.219,-1.5 -0.21,-1.468 -0.211,-1.45 -0.2,-1.421 -0.199,-1.391 -0.199,-1.367 -0.191,-1.352 -0.192,-1.32 -0.187,-1.301 -0.18,-1.289 -0.191,-1.262 -0.18,-1.238 -0.168,-1.219 -0.184,-1.211 -0.168,-1.179 -0.172,-1.18 -0.168,-1.152 -0.171,-1.137 -0.168,-1.133 -0.161,-1.117 -0.171,-1.102 -0.161,-1.101 -0.16,-1.078 -0.16,-1.071 -0.156,-1.07 -0.32,-2.102 -0.153,-1.046 -0.16,-1.043 -0.16,-1.028 -0.16,-1.031 -0.149,-1.031 -0.16,-1.02 -0.16,-1.027 -0.16,-1.024 -0.16,-1.027 -0.16,-1.031 -0.161,-1.02 -0.16,-1.039 -0.16,-1.031 -0.16,-1.039 -0.168,-1.051 -0.16,-1.051 -0.172,-1.058 -0.168,-1.071 -0.172,-1.082 -0.18,-1.089 -0.168,-1.09 -0.179,-1.11 -0.184,-1.121 -0.187,-1.136 -0.18,-1.153 -0.191,-1.16 -0.192,-1.18 -0.199,-1.187 -0.188,-1.223 -0.211,-1.23 -0.199,-1.25 -0.211,-1.27 -0.211,-1.289 -0.218,-1.308 -0.211,-1.332 -0.231,-1.36 -0.23,-1.379 -0.231,-1.41 -0.226,-1.43 -0.242,-1.461 -0.25,-1.48 -0.25,-1.52 -0.258,-1.539 -0.262,-1.57 -0.262,-1.601 -0.269,-1.641 -0.278,-1.668 -0.281,-1.699 -0.289,-1.731 -0.293,-1.769 -0.008,-0.051"
         style="fill:none;stroke:#000080;stroke-width:0.03;stroke-linecap:butt;stroke-linejoin:bevel;stroke-miterlimit:1;stroke-dasharray:none;stroke-opacity:1"
         id="path16" /></g><g
       id="g18"
       transform="matrix(1,0,0,-1,-8.7281693,-0.56314046)"><path
         d="m 218.59,-152.512 2.23,-14.777 6.879,13.258 z"
         style="fill:#000080;fill-opacity:1;fill-rule:nonzero;stroke:#000080;stroke-width:0.03;stroke-linecap:butt;stroke-linejoin:bevel;stroke-miterlimit:1;stroke-dasharray:none;stroke-opacity:1"
         id="path20" /></g><g
       id="g22"
       transform="matrix(1,0,0,-1,-8.7281693,-0.56314046)"><path
         d="m 245.359,-54.75 0.692,-1.398 0.828,-1.68 0.82,-1.652 0.789,-1.61 0.793,-1.59 0.758,-1.55 0.75,-1.52 0.742,-1.5 0.731,-1.469 0.707,-1.441 0.691,-1.41 0.692,-1.391 0.668,-1.367 0.66,-1.344 0.64,-1.316 0.641,-1.301 0.617,-1.281 0.621,-1.25 0.602,-1.239 0.597,-1.222 0.582,-1.199 0.579,-1.18 0.562,-1.168 0.559,-1.152 0.55,-1.141 0.54,-1.129 0.539,-1.109 0.531,-1.102 0.519,-1.09 0.52,-1.078 0.512,-1.07 0.507,-1.063 0.5,-1.058 0.493,-1.039 0.5,-1.039 0.48,-1.043 0.488,-1.028 0.961,-2.062 0.961,-2.039 0.469,-1.032 0.48,-1.019 0.469,-1.02 0.473,-1.031 0.476,-1.027 0.473,-1.039 0.469,-1.043 0.48,-1.039 0.481,-1.051 0.48,-1.059 0.481,-1.07 0.488,-1.07 0.488,-1.09 0.492,-1.102 0.489,-1.109 0.5,-1.117 0.511,-1.133 0.508,-1.149 0.524,-1.16 0.519,-1.179 0.528,-1.2 0.531,-1.211 0.551,-1.23 0.55,-1.25 0.547,-1.27 0.571,-1.289 0.57,-1.312 0.59,-1.34 0.59,-1.359 0.601,-1.379 0.621,-1.403 0.617,-1.437 0.641,-1.461 0.641,-1.48 0.66,-1.52 0.672,-1.539 0.679,-1.57 0.7,-1.61 0.711,-1.64 0.718,-1.661 0.739,-1.71 0.75,-1.731 0.761,-1.769 0.782,-1.809 0.796,-1.84 0.813,-1.883 0.34,-0.777"
         style="fill:none;stroke:#b22222;stroke-width:0.91;stroke-linecap:butt;stroke-linejoin:bevel;stroke-miterlimit:1;stroke-dasharray:none;stroke-opacity:1"
         id="path24" /></g><g
       id="g26"
       transform="matrix(1,0,0,-1,-8.7281693,-0.56314046)"><path
         d="m 287.43,-156.07 9.871,-11.219 -1.403,14.879 z"
         style="fill:#b22222;fill-opacity:1;fill-rule:nonzero;stroke:#b22222;stroke-width:0.91;stroke-linecap:butt;stroke-linejoin:bevel;stroke-miterlimit:1;stroke-dasharray:none;stroke-opacity:1"
         id="path28" /></g><g
       id="g30"
       transform="matrix(1,0,0,-1,-8.7281693,-0.56314046)"><path
         d="m 246.328,-54.75 2.051,-3.531 2.051,-3.539 2.011,-3.469 1.969,-3.391 1.93,-3.34 1.898,-3.261 1.852,-3.207 1.82,-3.141 1.789,-3.082 1.75,-3.027 1.723,-2.961 1.68,-2.922 1.648,-2.859 1.621,-2.809 1.59,-2.762 1.559,-2.711 1.539,-2.66 1.5,-2.617 1.48,-2.582 1.461,-2.527 1.43,-2.5 1.398,-2.461 1.383,-2.422 1.367,-2.391 1.332,-2.348 1.32,-2.32 1.301,-2.301 1.289,-2.257 1.258,-2.243 1.25,-2.211 1.231,-2.187 1.222,-2.172 1.199,-2.148 1.192,-2.129 1.18,-2.121 1.168,-2.102 1.16,-2.09 1.148,-2.078 1.141,-2.062 1.133,-2.059 1.117,-2.051 1.121,-2.051 1.121,-2.046 1.109,-2.043 1.11,-2.039 1.101,-2.051 1.11,-2.047 1.097,-2.063 1.114,-2.058 1.097,-2.071 1.11,-2.082 1.113,-2.089 1.117,-2.11 1.121,-2.121 1.129,-2.137 1.133,-2.16 1.137,-2.179 1.152,-2.204 1.16,-2.226 1.168,-2.25 1.18,-2.274 1.203,-2.308 1.199,-2.34 1.219,-2.371 1.238,-2.399 1.25,-2.441 1.274,-2.469 1.289,-2.511 1.3,-2.559 1.321,-2.59 1.347,-2.64 1.36,-2.692 1.39,-2.726 1.411,-2.782 1.441,-2.84 1.461,-2.878 1.476,-2.942 1.512,-2.988 1.539,-3.051 1.571,-3.109 1.601,-3.172 1.629,-3.231 1.66,-3.3 1.692,-3.36 1.718,-3.429 1.758,-3.489 1.793,-3.57 1.828,-3.641 1.86,-3.718 1.902,-3.793 1.937,-3.86 1.981,-3.949 2.019,-4.02 0.622,-1.242"
         style="fill:none;stroke:#b22222;stroke-width:0.3;stroke-linecap:butt;stroke-linejoin:bevel;stroke-miterlimit:1;stroke-dasharray:none;stroke-opacity:1"
         id="path32" /></g><g
       id="g34"
       transform="matrix(1,0,0,-1,-8.7281693,-0.56314046)"><path
         d="m 369.27,-291.879 10.5,-10.633 -2.239,14.774 z"
         style="fill:#b22222;fill-opacity:1;fill-rule:nonzero;stroke:#b22222;stroke-width:0.3;stroke-linecap:butt;stroke-linejoin:bevel;stroke-miterlimit:1;stroke-dasharray:none;stroke-opacity:1"
         id="path36" /></g><g
       id="g38"
       transform="matrix(1,0,0,-1,-8.7281693,-0.56314046)"><path
         d="m 276.48,-54.75 -0.332,-0.781 -0.82,-1.879 -0.789,-1.84 -0.777,-1.809 -0.774,-1.769 -0.75,-1.731 -0.738,-1.711 -0.719,-1.66 -0.711,-1.64 -0.691,-1.61 -0.688,-1.57 -0.671,-1.539 -0.649,-1.52 -0.652,-1.48 -0.629,-1.461 -0.629,-1.441 -0.609,-1.399 -0.602,-1.379 -0.602,-1.359 -0.578,-1.344 -0.582,-1.308 -0.558,-1.29 -0.559,-1.269 -0.551,-1.25 -0.539,-1.231 -0.543,-1.21 -0.527,-1.2 -0.52,-1.179 -0.519,-1.161 -0.512,-1.152 -0.5,-1.129 -0.5,-1.121 -0.5,-1.109 -0.488,-1.098 -0.492,-1.09 -0.489,-1.07 -0.48,-1.07 -0.481,-1.063 -0.48,-1.047 -0.469,-1.043 -0.48,-1.039 -0.473,-1.039 -0.469,-1.031 -0.48,-1.027 -0.469,-1.024 -0.469,-1.019 -0.48,-1.028 -0.481,-1.019 -0.468,-1.024 -0.481,-1.027 -0.492,-1.031 -0.48,-1.032 -0.489,-1.039 -0.492,-1.039 -0.5,-1.039 -0.5,-1.062 -0.508,-1.059 -0.511,-1.07 -0.508,-1.078 -0.531,-1.09 -0.532,-1.102 -0.527,-1.109 -0.551,-1.133 -0.551,-1.137 -0.55,-1.152 -0.571,-1.168 -0.578,-1.18 -0.582,-1.203 -0.598,-1.218 -0.601,-1.239 -0.609,-1.25 -0.629,-1.281 -0.629,-1.301 -0.653,-1.32 -0.66,-1.34 -0.668,-1.367 -0.679,-1.391 -0.704,-1.41 -0.707,-1.441 -0.722,-1.469 -0.739,-1.5 -0.75,-1.52 -0.769,-1.55 -0.781,-1.59 -0.801,-1.61 -0.809,-1.652 -0.832,-1.68 -0.699,-1.398"
         style="fill:none;stroke:#b22222;stroke-width:0.16;stroke-linecap:butt;stroke-linejoin:bevel;stroke-miterlimit:1;stroke-dasharray:none;stroke-opacity:1"
         id="path40" /></g><g
       id="g42"
       transform="matrix(1,0,0,-1,-8.7281693,-0.56314046)"><path
         d="m 226.699,-152.5 -2.16,-14.789 10.441,10.687 z"
         style="fill:#b22222;fill-opacity:1;fill-rule:nonzero;stroke:#b22222;stroke-width:0.16;stroke-linecap:butt;stroke-linejoin:bevel;stroke-miterlimit:1;stroke-dasharray:none;stroke-opacity:1"
         id="path44" /></g><g
       id="g46"
       transform="matrix(1,0,0,-1,-8.7281693,-0.56314046)"><path
         d="m 283.262,-54.75 0.008,-0.051 0.3,-1.769 0.289,-1.731 0.282,-1.699 0.269,-1.672 0.281,-1.637 0.258,-1.601 0.262,-1.57 0.258,-1.54 0.25,-1.519 0.242,-1.481 0.238,-1.46 0.242,-1.43 0.231,-1.41 0.226,-1.379 0.223,-1.36 0.219,-1.332 0.219,-1.308 0.211,-1.289 0.21,-1.274 0.2,-1.25 0.199,-1.226 0.199,-1.223 0.203,-1.187 0.188,-1.18 0.191,-1.16 0.18,-1.153 0.18,-1.14 0.191,-1.117 0.168,-1.114 0.18,-1.09 0.171,-1.089 0.18,-1.079 0.168,-1.07 0.16,-1.058 0.172,-1.051 0.168,-1.051 0.16,-1.039 0.16,-1.031 0.161,-1.039 0.16,-1.02 0.32,-2.062 0.16,-1.02 0.16,-1.027 0.161,-1.024 0.152,-1.027 0.156,-1.031 0.16,-1.032 0.153,-1.039 0.16,-1.05 0.16,-1.047 0.16,-1.051 0.32,-2.141 0.161,-1.082 0.16,-1.097 0.168,-1.102 0.16,-1.117 0.172,-1.133 0.16,-1.141 0.168,-1.148 0.172,-1.18 0.179,-1.179 0.168,-1.211 0.18,-1.219 0.18,-1.242 0.179,-1.258 0.192,-1.289 0.191,-1.301 0.188,-1.32 0.191,-1.352 0.199,-1.371 0.2,-1.387 0.41,-2.871 0.211,-1.468 0.218,-1.5 0.211,-1.532 0.231,-1.558 0.219,-1.59 0.23,-1.621 0.242,-1.66 0.239,-1.68 0.242,-1.723 0.25,-1.75 0.258,-1.789 0.261,-1.828 0.059,-0.41"
         style="fill:none;stroke:#000080;stroke-width:0.14;stroke-linecap:butt;stroke-linejoin:bevel;stroke-miterlimit:1;stroke-dasharray:none;stroke-opacity:1"
         id="path48" /></g><g
       id="g50"
       transform="matrix(1,0,0,-1,-8.7281693,-0.56314046)"><path
         d="m 294.012,-153.871 6.578,-13.418 2.57,14.719 z"
         style="fill:#000080;fill-opacity:1;fill-rule:nonzero;stroke:#000080;stroke-width:0.14;stroke-linecap:butt;stroke-linejoin:bevel;stroke-miterlimit:1;stroke-dasharray:none;stroke-opacity:1"
         id="path52" /></g><g
       id="g54"
       transform="matrix(1,0,0,-1,-8.7281693,-0.56314046)"><path
         d="m 286.039,-54.75 0.039,-0.109 1.512,-3.672 1.48,-3.598 1.442,-3.519 1.418,-3.454 1.39,-3.386 1.36,-3.321 1.34,-3.25 1.3,-3.203 1.289,-3.129 1.262,-3.07 1.231,-3.019 1.207,-2.961 1.191,-2.899 1.16,-2.851 1.149,-2.797 1.121,-2.75 1.101,-2.711 1.078,-2.66 1.071,-2.61 1.039,-2.57 1.031,-2.531 1.012,-2.489 0.988,-2.453 0.98,-2.418 0.961,-2.379 0.95,-2.351 0.929,-2.32 0.918,-2.29 0.91,-2.261 0.891,-2.239 0.891,-2.21 0.871,-2.192 0.871,-2.168 0.848,-2.148 0.839,-2.133 0.84,-2.109 0.832,-2.098 0.821,-2.094 0.82,-2.078 0.808,-2.07 0.801,-2.059 0.797,-2.051 1.602,-4.101 0.789,-2.047 0.793,-2.043 0.789,-2.051 0.777,-2.058 0.793,-2.059 0.789,-2.063 0.789,-2.078 0.801,-2.09 0.789,-2.101 0.801,-2.109 0.801,-2.129 0.808,-2.153 0.813,-2.16 0.816,-2.187 0.832,-2.211 0.828,-2.231 0.84,-2.258 0.852,-2.293 0.859,-2.308 0.871,-2.352 0.879,-2.379 0.891,-2.41 0.898,-2.449 0.91,-2.488 0.934,-2.524 0.937,-2.566 0.95,-2.613 0.972,-2.649 0.989,-2.699 1,-2.742 1.019,-2.797 1.031,-2.852 1.059,-2.898 1.07,-2.953 1.09,-3.008 1.121,-3.063 1.129,-3.128 1.152,-3.192 1.18,-3.238 1.199,-3.32 1.219,-3.379 1.25,-3.442 1.27,-3.519 1.3,-3.59 1.321,-3.649 1.351,-3.742 1.367,-3.808 1.411,-3.879 1.429,-3.973 0.383,-1.051"
         style="fill:none;stroke:#b22222;stroke-width:0.23;stroke-linecap:butt;stroke-linejoin:bevel;stroke-miterlimit:1;stroke-dasharray:none;stroke-opacity:1"
         id="path56" /></g><g
       id="g58"
       transform="matrix(1,0,0,-1,-8.7281693,-0.56314046)"><path
         d="m 372.199,-290.711 9.172,-11.801 -0.48,14.934 z"
         style="fill:#b22222;fill-opacity:1;fill-rule:nonzero;stroke:#b22222;stroke-width:0.23;stroke-linecap:butt;stroke-linejoin:bevel;stroke-miterlimit:1;stroke-dasharray:none;stroke-opacity:1"
         id="path60" /></g><g
       id="g62"
       transform="matrix(1,0,0,-1,-8.7281693,-0.56314046)"><path
         d="m 315.02,-54.75 -0.801,-1.141 -1.367,-1.937 -1.34,-1.891 -1.313,-1.859 -1.289,-1.832 -1.262,-1.781 -1.238,-1.75 -1.211,-1.719 -1.187,-1.68 -1.172,-1.648 -1.149,-1.621 -1.121,-1.59 -1.109,-1.563 -1.082,-1.519 -1.07,-1.5 -1.047,-1.469 -1.032,-1.441 -1.011,-1.418 -0.989,-1.391 -0.98,-1.371 -0.969,-1.34 -0.953,-1.32 -0.93,-1.297 -0.929,-1.281 -0.91,-1.262 -0.887,-1.231 -0.891,-1.218 -0.871,-1.2 -0.871,-1.191 -0.848,-1.16 -0.851,-1.16 -0.84,-1.129 -0.828,-1.129 -0.82,-1.109 -0.821,-1.102 -0.812,-1.09 -0.809,-1.082 -1.601,-2.117 -1.579,-2.102 -0.789,-1.039 -0.793,-1.031 -0.789,-1.027 -0.789,-1.024 -0.789,-1.027 -0.793,-1.02 -0.797,-1.019 -0.793,-1.012 -0.796,-1.019 -0.801,-1.02 -0.813,-1.031 -0.808,-1.02 -0.821,-1.031 -0.828,-1.039 -0.832,-1.039 -0.84,-1.039 -0.847,-1.051 -0.852,-1.07 -0.871,-1.071 -0.879,-1.082 -0.89,-1.089 -0.899,-1.098 -0.91,-1.109 -0.93,-1.133 -0.941,-1.141 -0.949,-1.148 -0.969,-1.18 -0.981,-1.18 -1,-1.211 -1.019,-1.218 -1.031,-1.243 -1.051,-1.257 -1.07,-1.282 -1.09,-1.308 -1.11,-1.321 -1.129,-1.351 -1.16,-1.367 -1.172,-1.403 -1.199,-1.418 -1.219,-1.453 -1.242,-1.476 -1.269,-1.5 -1.289,-1.543 -1.321,-1.559 -1.351,-1.59 -1.367,-1.629 -0.832,-0.98"
         style="fill:none;stroke:#000080;stroke-width:0.3;stroke-linecap:butt;stroke-linejoin:bevel;stroke-miterlimit:1;stroke-dasharray:none;stroke-opacity:1"
         id="path64" /></g><g
       id="g66"
       transform="matrix(1,0,0,-1,-8.7281693,-0.56314046)"><path
         d="m 234.172,-153.461 -5.652,-13.828 12.699,7.867 z"
         style="fill:#000080;fill-opacity:1;fill-rule:nonzero;stroke:#000080;stroke-width:0.3;stroke-linecap:butt;stroke-linejoin:bevel;stroke-miterlimit:1;stroke-dasharray:none;stroke-opacity:1"
         id="path68" /></g><g
       id="g70"
       transform="matrix(1,0,0,-1,-8.7281693,-0.56314046)"><path
         d="m 321.398,-54.75 -0.058,-0.41 -0.262,-1.828 -0.25,-1.793 -0.25,-1.75 -0.238,-1.719 -0.238,-1.68 -0.243,-1.66 -0.23,-1.621 -0.231,-1.59 -0.218,-1.558 -0.219,-1.532 -0.211,-1.5 -0.211,-1.468 -0.211,-1.45 -0.199,-1.421 -0.207,-1.391 -0.192,-1.367 -0.199,-1.352 -0.191,-1.32 -0.18,-1.301 -0.191,-1.289 -0.18,-1.262 -0.18,-1.238 -0.179,-1.219 -0.18,-1.211 -0.172,-1.179 -0.168,-1.18 -0.172,-1.152 -0.168,-1.137 -0.16,-1.133 -0.172,-1.117 -0.16,-1.102 -0.156,-1.101 -0.172,-1.078 -0.32,-2.141 -0.149,-1.051 -0.16,-1.051 -0.16,-1.046 -0.16,-1.043 -0.153,-1.028 -0.32,-2.062 -0.156,-1.02 -0.152,-1.027 -0.161,-1.024 -0.16,-1.027 -0.16,-1.031 -0.16,-1.02 -0.16,-1.039 -0.16,-1.031 -0.168,-1.039 -0.161,-1.051 -0.171,-1.051 -0.168,-1.058 -0.172,-1.071 -0.168,-1.082 -0.172,-1.089 -0.18,-1.09 -0.179,-1.11 -0.18,-1.121 -0.18,-1.136 -0.191,-1.153 -0.188,-1.16 -0.191,-1.18 -0.192,-1.187 -0.199,-1.223 -0.199,-1.23 -0.211,-1.25 -0.199,-1.27 -0.219,-1.289 -0.211,-1.308 -0.219,-1.332 -0.222,-1.36 -0.231,-1.379 -0.226,-1.41 -0.242,-1.43 -0.239,-1.461 -0.25,-1.48 -0.25,-1.52 -0.25,-1.539 -0.261,-1.57 -0.27,-1.601 -0.27,-1.641 -0.281,-1.668 -0.277,-1.699 -0.293,-1.731 -0.289,-1.769 -0.012,-0.051"
         style="fill:none;stroke:#000080;stroke-width:1.16;stroke-linecap:butt;stroke-linejoin:bevel;stroke-miterlimit:1;stroke-dasharray:none;stroke-opacity:1"
         id="path72" /></g><g
       id="g74"
       transform="matrix(1,0,0,-1,-8.7281693,-0.56314046)"><path
         d="m 301.859,-152.512 2.219,-14.777 6.891,13.258 z"
         style="fill:#000080;fill-opacity:1;fill-rule:nonzero;stroke:#000080;stroke-width:1.16;stroke-linecap:butt;stroke-linejoin:bevel;stroke-miterlimit:1;stroke-dasharray:none;stroke-opacity:1"
         id="path76" /></g><g
       id="g78"
       transform="matrix(1,0,0,-1,-8.7281693,-0.56314046)"><path
         d="m 325.809,-54.75 0.07,-0.301 0.922,-3.73 0.898,-3.649 0.879,-3.582 0.863,-3.508 0.848,-3.441 0.832,-3.379 0.82,-3.301 0.789,-3.25 0.79,-3.179 0.761,-3.121 0.75,-3.059 0.739,-3.012 0.73,-2.937 0.711,-2.903 0.687,-2.839 0.692,-2.789 0.672,-2.75 0.66,-2.692 0.637,-2.648 0.64,-2.61 0.621,-2.558 0.621,-2.524 0.598,-2.488 0.59,-2.441 0.59,-2.418 0.57,-2.371 0.57,-2.348 0.563,-2.313 0.547,-2.289 0.543,-2.25 0.539,-2.242 0.519,-2.207 0.532,-2.18 0.507,-2.171 0.512,-2.141 0.508,-2.129 0.5,-2.121 0.5,-2.098 0.492,-2.082 0.488,-2.078 0.481,-2.07 0.48,-2.063 0.481,-2.058 0.961,-4.102 0.468,-2.047 0.469,-2.051 0.481,-2.05 0.468,-2.059 0.473,-2.062 0.481,-2.071 0.468,-2.078 0.481,-2.09 0.469,-2.109 0.48,-2.121 0.48,-2.129 0.489,-2.152 0.492,-2.18 0.488,-2.188 0.492,-2.222 0.5,-2.239 0.508,-2.261 0.512,-2.297 0.508,-2.32 0.519,-2.364 0.532,-2.386 0.539,-2.422 0.543,-2.461 0.546,-2.5 0.551,-2.528 0.571,-2.582 0.57,-2.621 0.59,-2.66 0.59,-2.719 0.601,-2.75 0.609,-2.808 0.629,-2.86 0.629,-2.921 0.641,-2.961 0.66,-3.028 0.672,-3.082 0.68,-3.14 0.699,-3.2 0.699,-3.269 0.723,-3.328 0.738,-3.391 0.75,-3.473 0.762,-3.527 0.777,-3.601 0.801,-3.68 0.808,-3.75 0.832,-3.828 0.84,-3.91 0.192,-0.864"
         style="fill:none;stroke:#000080;stroke-width:0.14;stroke-linecap:butt;stroke-linejoin:bevel;stroke-miterlimit:1;stroke-dasharray:none;stroke-opacity:1"
         id="path80" /></g><g
       id="g82"
       transform="matrix(1,0,0,-1,-8.7281693,-0.56314046)"><path
         d="m 375.488,-289.602 7.524,-12.91 1.508,14.871 z"
         style="fill:#000080;fill-opacity:1;fill-rule:nonzero;stroke:#000080;stroke-width:0.14;stroke-linecap:butt;stroke-linejoin:bevel;stroke-miterlimit:1;stroke-dasharray:none;stroke-opacity:1"
         id="path84" /></g><g
       id="g86"
       transform="matrix(1,0,0,-1,-8.7281693,-0.56314046)"><path
         d="m 392.609,-54.75 -2.257,-1.871 -2.473,-2.039 -2.418,-2.012 -2.383,-1.969 -2.328,-1.918 -2.281,-1.89 -2.239,-1.852 -2.199,-1.808 -2.152,-1.782 -2.117,-1.738 -2.071,-1.711 -2.043,-1.672 -2,-1.636 -1.957,-1.614 -1.929,-1.566 -1.903,-1.551 -1.859,-1.519 -1.828,-1.481 -1.801,-1.461 -1.769,-1.441 -1.743,-1.399 -1.718,-1.379 -1.692,-1.363 -1.668,-1.328 -1.64,-1.309 -1.621,-1.281 -1.598,-1.269 -1.582,-1.25 -1.57,-1.219 -1.54,-1.211 -1.531,-1.191 -1.508,-1.168 -1.5,-1.153 -1.48,-1.14 -1.481,-1.129 -1.46,-1.11 -1.461,-1.101 -1.438,-1.078 -1.441,-1.082 -2.86,-2.118 -1.422,-1.043 -1.418,-1.039 -1.429,-1.031 -1.422,-1.027 -1.418,-1.02 -1.422,-1.011 -1.43,-1.008 -2.859,-2.024 -1.449,-1 -1.449,-1.008 -1.461,-1 -1.469,-1.011 -1.481,-1.008 -1.492,-1.012 -1.508,-1.008 -1.531,-1.019 -1.531,-1.031 -1.559,-1.032 -1.582,-1.039 -1.59,-1.039 -1.609,-1.062 -1.641,-1.059 -1.66,-1.082 -1.679,-1.078 -1.707,-1.102 -1.743,-1.109 -1.757,-1.129 -1.793,-1.14 -1.821,-1.149 -1.859,-1.172 -1.879,-1.187 -1.922,-1.211 -1.949,-1.223 -1.988,-1.25 -2.02,-1.258 -2.07,-1.289 -2.102,-1.312 -2.14,-1.328 -2.188,-1.36 -2.223,-1.383 -2.269,-1.398 -2.32,-1.43 -2.36,-1.461 -2.41,-1.488 -2.461,-1.512 -1.637,-1.019"
         style="fill:none;stroke:#000080;stroke-width:1.95;stroke-linecap:butt;stroke-linejoin:bevel;stroke-miterlimit:1;stroke-dasharray:none;stroke-opacity:1"
         id="path88" /></g><g
       id="g90"
       transform="matrix(1,0,0,-1,-8.7281693,-0.56314046)"><path
         d="m 245.621,-156.77 -9.68,-11.39 14.52,3.519 z"
         style="fill:#000080;fill-opacity:1;fill-rule:nonzero;stroke:#000080;stroke-width:1.95;stroke-linecap:butt;stroke-linejoin:bevel;stroke-miterlimit:1;stroke-dasharray:none;stroke-opacity:1"
         id="path92" /></g><g
       id="g94"
       transform="matrix(1,0,0,-1,-8.7281693,-0.56314046)"><path
         d="m 398.289,-54.75 -0.809,-1.141 -1.359,-1.937 -1.34,-1.891 -1.32,-1.859 -1.281,-1.832 -1.27,-1.781 -1.23,-1.75 -1.219,-1.719 -1.191,-1.68 -1.168,-1.648 -1.141,-1.621 -1.133,-1.59 -1.098,-1.563 -1.089,-1.519 -1.071,-1.5 -1.039,-1.469 -1.031,-1.441 -1.012,-1.418 -1,-1.391 -0.976,-1.371 -0.961,-1.34 -0.949,-1.32 -0.942,-1.297 -0.922,-1.281 -0.91,-1.262 -0.898,-1.231 -0.879,-1.218 -0.879,-1.2 -0.863,-1.191 -0.86,-1.16 -0.847,-1.16 -0.832,-1.129 -0.829,-1.129 -0.832,-1.109 -0.808,-1.102 -0.821,-1.09 -0.8,-1.082 -1.602,-2.117 -0.797,-1.051 -0.793,-1.051 -0.789,-1.039 -0.789,-1.031 -0.789,-1.027 -0.793,-1.024 -0.789,-1.027 -1.578,-2.039 -0.801,-1.012 -1.601,-2.039 -0.809,-1.031 -0.809,-1.02 -0.82,-1.031 -0.82,-1.039 -0.832,-1.039 -0.84,-1.039 -0.848,-1.051 -0.859,-1.07 -0.871,-1.071 -0.871,-1.082 -0.891,-1.089 -0.898,-1.098 -0.922,-1.109 -0.918,-1.133 -0.942,-1.141 -0.949,-1.148 -0.969,-1.18 -0.992,-1.18 -1,-1.211 -1.008,-1.218 -1.043,-1.243 -1.046,-1.257 -1.071,-1.282 -1.09,-1.308 -1.113,-1.321 -1.129,-1.351 -1.148,-1.367 -1.18,-1.403 -1.191,-1.418 -1.219,-1.453 -1.25,-1.476 -1.262,-1.5 -1.301,-1.543 -1.32,-1.559 -1.34,-1.59 -1.367,-1.629 -0.84,-0.98"
         style="fill:none;stroke:#000080;stroke-width:4.27;stroke-linecap:butt;stroke-linejoin:bevel;stroke-miterlimit:1;stroke-dasharray:none;stroke-opacity:1"
         id="path96" /></g><g
       id="g98"
       transform="matrix(1,0,0,-1,-8.7281693,-0.56314046)"><path
         d="m 317.43,-153.461 -5.649,-13.828 12.707,7.867 z"
         style="fill:#000080;fill-opacity:1;fill-rule:nonzero;stroke:#000080;stroke-width:4.27;stroke-linecap:butt;stroke-linejoin:bevel;stroke-miterlimit:1;stroke-dasharray:none;stroke-opacity:1"
         id="path100" /></g><g
       id="g102"
       transform="matrix(1,0,0,-1,-8.7281693,-0.56314046)"><path
         d="m 405.52,-54.75 -0.051,-0.68 -0.25,-3.84 -0.25,-3.769 -0.25,-3.699 -0.239,-3.621 -0.242,-3.551 -0.226,-3.481 -0.231,-3.41 -0.23,-3.347 -0.223,-3.282 -0.207,-3.211 -0.223,-3.16 -0.199,-3.09 -0.211,-3.039 -0.199,-2.98 -0.199,-2.93 -0.192,-2.871 -0.187,-2.82 -0.191,-2.77 -0.192,-2.719 -0.18,-2.679 -0.179,-2.629 -0.18,-2.594 -0.18,-2.539 -0.168,-2.508 -0.171,-2.472 -0.168,-2.43 -0.172,-2.399 -0.16,-2.359 -0.168,-2.332 -0.161,-2.309 -0.16,-2.269 -0.16,-2.25 -0.16,-2.223 -0.16,-2.199 -0.16,-2.18 -0.153,-2.16 -0.16,-2.14 -0.148,-2.118 -0.16,-2.113 -0.161,-2.09 -0.148,-2.09 -0.16,-2.07 -0.153,-2.066 -0.16,-2.063 -0.148,-2.051 -0.16,-2.046 -0.481,-6.153 -0.16,-2.058 -0.16,-2.063 -0.16,-2.066 -0.168,-2.071 -0.16,-2.089 -0.172,-2.102 -0.168,-2.109 -0.18,-2.129 -0.172,-2.141 -0.179,-2.16 -0.18,-2.18 -0.18,-2.211 -0.18,-2.23 -0.191,-2.25 -0.187,-2.281 -0.192,-2.309 -0.199,-2.34 -0.199,-2.371 -0.203,-2.398 -0.207,-2.442 -0.211,-2.48 -0.211,-2.508 -0.219,-2.563 -0.223,-2.597 -0.226,-2.641 -0.231,-2.68 -0.23,-2.742 -0.242,-2.777 -0.25,-2.832 -0.25,-2.891 -0.25,-2.929 -0.258,-3 -0.262,-3.047 -0.269,-3.102 -0.282,-3.172 -0.277,-3.226 -0.289,-3.301 -0.293,-3.359 -0.301,-3.422 -0.297,-3.5 -0.312,-3.571 -0.321,-3.629 -0.328,-3.718 -0.332,-3.782 -0.039,-0.492"
         style="fill:none;stroke:#000080;stroke-width:0.09;stroke-linecap:butt;stroke-linejoin:bevel;stroke-miterlimit:1;stroke-dasharray:none;stroke-opacity:1"
         id="path104" /></g><g
       id="g106"
       transform="matrix(1,0,0,-1,-8.7281693,-0.56314046)"><path
         d="m 383.09,-287.949 3.359,-14.563 5.84,13.762 z"
         style="fill:#000080;fill-opacity:1;fill-rule:nonzero;stroke:#000080;stroke-width:0.09;stroke-linecap:butt;stroke-linejoin:bevel;stroke-miterlimit:1;stroke-dasharray:none;stroke-opacity:1"
         id="path108" /></g><g
       id="g110"
       transform="matrix(1,0,0,-1,-8.7281693,-0.56314046)"><path
         d="m 431.629,-54.75 -0.117,-0.078 -3.09,-2.152 -3.024,-2.098 -2.968,-2.063 -2.899,-2.019 -2.859,-1.981 -2.793,-1.937 -2.738,-1.902 -2.692,-1.86 -2.64,-1.832 -2.59,-1.777 -2.528,-1.75 -2.5,-1.723 -2.441,-1.68 -2.41,-1.648 -2.36,-1.609 -2.308,-1.59 -2.281,-1.551 -2.243,-1.52 -2.207,-1.492 -2.16,-1.468 -2.14,-1.43 -2.102,-1.41 -2.07,-1.391 -2.028,-1.359 -2.011,-1.328 -1.989,-1.313 -1.961,-1.289 -1.929,-1.27 -1.91,-1.25 -1.891,-1.218 -1.871,-1.211 -1.848,-1.192 -1.832,-1.168 -1.82,-1.152 -1.801,-1.141 -1.789,-1.117 -1.769,-1.109 -1.77,-1.102 -1.762,-1.082 -1.75,-1.066 -1.75,-1.063 -1.738,-1.05 -1.738,-1.039 -1.731,-1.04 -1.742,-1.019 -1.73,-1.02 -1.739,-1.011 -1.75,-1.008 -1.742,-1 -1.758,-1 -1.761,-1 -1.778,-0.992 -1.781,-1 -1.801,-0.989 -1.808,-1 -1.821,-1 -1.84,-0.992 -1.859,-1.008 -1.883,-1 -1.91,-1.019 -1.918,-1.012 -1.941,-1.031 -1.981,-1.027 -2,-1.043 -2.019,-1.047 -2.059,-1.063 -2.082,-1.07 -2.117,-1.078 -2.152,-1.09 -2.188,-1.109 -2.23,-1.122 -2.262,-1.14 -2.301,-1.149 -2.34,-1.171 -2.379,-1.18 -2.429,-1.211 -2.469,-1.219 -2.52,-1.238 -2.57,-1.274 -2.609,-1.277 -2.672,-1.312 -2.719,-1.329 -2.769,-1.359 -2.832,-1.383 -2.879,-1.41 -2.942,-1.43 -3,-1.457 -3.058,-1.492 -2.7,-1.308"
         style="fill:none;stroke:#000080;stroke-width:0.51;stroke-linecap:butt;stroke-linejoin:bevel;stroke-miterlimit:1;stroke-dasharray:none;stroke-opacity:1"
         id="path112" /></g><g
       id="g114"
       transform="matrix(1,0,0,-1,-8.7281693,-0.56314046)"><path
         d="m 246.699,-160 -10.758,-10.359 14.797,2.05 z"
         style="fill:#000080;fill-opacity:1;fill-rule:nonzero;stroke:#000080;stroke-width:0.51;stroke-linecap:butt;stroke-linejoin:bevel;stroke-miterlimit:1;stroke-dasharray:none;stroke-opacity:1"
         id="path116" /></g><g
       id="g118"
       transform="matrix(1,0,0,-1,-8.7281693,-0.56314046)"><path
         d="m 437,-54.75 -1.449,-1.5 -1.922,-1.988 -1.879,-1.961 -1.84,-1.91 -1.808,-1.879 -1.782,-1.832 -1.73,-1.801 -1.711,-1.77 -1.668,-1.73 -1.641,-1.688 -1.621,-1.671 -1.578,-1.629 -1.551,-1.59 -1.519,-1.571 -1.5,-1.539 -1.473,-1.511 -1.449,-1.481 -1.418,-1.449 -1.402,-1.422 -1.368,-1.398 -1.363,-1.379 -1.328,-1.352 -1.309,-1.32 -1.3,-1.309 -1.27,-1.281 -1.262,-1.258 -1.25,-1.25 -1.218,-1.222 -1.219,-1.2 -1.203,-1.187 -1.18,-1.172 -1.18,-1.16 -1.16,-1.141 -1.16,-1.121 -1.141,-1.109 -1.136,-1.098 -1.133,-1.09 -1.129,-1.082 -1.109,-1.07 -1.121,-1.051 -1.11,-1.047 -1.101,-1.051 -1.11,-1.031 -1.097,-1.027 -1.114,-1.031 -1.097,-1.02 -1.11,-1.012 -1.109,-1.019 -1.113,-1.012 -1.118,-1.019 -1.132,-1.008 -1.118,-1.012 -1.14,-1.019 -1.153,-1.02 -1.148,-1.02 -1.16,-1.019 -1.18,-1.031 -1.18,-1.039 -1.199,-1.039 -1.211,-1.051 -1.23,-1.063 -1.238,-1.066 -1.262,-1.082 -1.27,-1.09 -1.289,-1.102 -1.312,-1.109 -1.34,-1.129 -1.348,-1.14 -1.371,-1.161 -1.398,-1.168 -1.422,-1.191 -1.442,-1.199 -1.468,-1.231 -1.489,-1.242 -1.519,-1.269 -1.551,-1.278 -1.582,-1.312 -1.609,-1.328 -1.641,-1.352 -1.66,-1.379 -1.707,-1.398 -1.731,-1.434 -1.769,-1.449 -1.813,-1.481 -1.839,-1.519 -1.872,-1.539 -1.918,-1.57 -0.691,-0.559"
         style="fill:none;stroke:#b22222;stroke-width:0.29;stroke-linecap:butt;stroke-linejoin:bevel;stroke-miterlimit:1;stroke-dasharray:none;stroke-opacity:1"
         id="path120" /></g><g
       id="g122"
       transform="matrix(1,0,0,-1,-8.7281693,-0.56314046)"><path
         d="m 324.109,-154.711 -8.07,-12.578 13.922,5.43 z"
         style="fill:#b22222;fill-opacity:1;fill-rule:nonzero;stroke:#b22222;stroke-width:0.29;stroke-linecap:butt;stroke-linejoin:bevel;stroke-miterlimit:1;stroke-dasharray:none;stroke-opacity:1"
         id="path124" /></g><g
       id="g126"
       transform="matrix(1,0,0,-1,-8.7281693,-0.56314046)"><path
         d="m 445.461,-54.75 -0.191,-0.859 -0.84,-3.911 -0.828,-3.832 -0.813,-3.75 -0.801,-3.679 -0.777,-3.598 -0.762,-3.543 -0.75,-3.457 -0.738,-3.391 -0.723,-3.332 -0.707,-3.269 -0.691,-3.199 -0.68,-3.141 -0.672,-3.078 -0.66,-3.031 -0.637,-2.961 -0.64,-2.918 -0.621,-2.86 -0.61,-2.812 -0.601,-2.75 -0.598,-2.719 -0.582,-2.66 -0.57,-2.621 -0.571,-2.578 -0.546,-2.539 -0.551,-2.492 -0.551,-2.461 -0.531,-2.418 -0.528,-2.391 -0.519,-2.359 -0.512,-2.321 -0.512,-2.3 -0.507,-2.258 -0.5,-2.242 -0.493,-2.219 -0.5,-2.192 -0.476,-2.179 -0.492,-2.149 -0.481,-2.133 -0.48,-2.117 -0.481,-2.109 -0.468,-2.094 -0.481,-2.078 -0.469,-2.07 -0.468,-2.059 -0.473,-2.062 -0.481,-2.047 -0.468,-2.051 -0.481,-2.051 -0.469,-2.051 -0.48,-2.05 -0.961,-4.118 -0.488,-2.07 -0.481,-2.082 -0.5,-2.078 -0.492,-2.102 -0.5,-2.121 -0.508,-2.129 -0.511,-2.14 -0.508,-2.168 -0.531,-2.18 -0.532,-2.211 -0.527,-2.238 -0.539,-2.25 -0.551,-2.293 -0.562,-2.309 -0.571,-2.351 -0.566,-2.379 -0.594,-2.41 -0.59,-2.442 -0.609,-2.488 -0.609,-2.52 -0.622,-2.558 -0.636,-2.613 -0.653,-2.649 -0.66,-2.691 -0.668,-2.75 -0.679,-2.789 -0.704,-2.84 -0.707,-2.899 -0.722,-2.953 -0.739,-3 -0.75,-3.058 -0.769,-3.121 -0.781,-3.18 -0.801,-3.25 -0.809,-3.301 -0.832,-3.379 -0.847,-3.437 -0.86,-3.512 -0.883,-3.578 -0.898,-3.652 -0.922,-3.731 -0.078,-0.301"
         style="fill:none;stroke:#000080;stroke-width:0.45;stroke-linecap:butt;stroke-linejoin:bevel;stroke-miterlimit:1;stroke-dasharray:none;stroke-opacity:1"
         id="path128" /></g><g
       id="g130"
       transform="matrix(1,0,0,-1,-8.7281693,-0.56314046)"><path
         d="m 387.172,-287.609 1.078,-14.903 7.891,12.692 z"
         style="fill:#000080;fill-opacity:1;fill-rule:nonzero;stroke:#000080;stroke-width:0.45;stroke-linecap:butt;stroke-linejoin:bevel;stroke-miterlimit:1;stroke-dasharray:none;stroke-opacity:1"
         id="path132" /></g><g
       id="g134"
       transform="matrix(1,0,0,-1,-8.7281693,-0.56314046)"><path
         d="m 235.02,-189.969 0.511,-0.359 2.18,-1.543 2.148,-1.508 2.102,-1.492 2.059,-1.449 2.019,-1.43 1.981,-1.41 1.941,-1.379 1.91,-1.352 1.867,-1.328 1.832,-1.312 1.801,-1.289 1.77,-1.258 1.738,-1.25 1.699,-1.223 1.684,-1.211 1.648,-1.187 1.621,-1.172 1.59,-1.149 1.57,-1.14 1.539,-1.129 1.52,-1.109 1.5,-1.102 1.48,-1.09 1.45,-1.082 1.441,-1.058 1.418,-1.059 1.402,-1.051 1.379,-1.039 1.371,-1.031 1.348,-1.031 1.34,-1.028 1.332,-1.011 1.32,-1.02 1.309,-1.012 1.301,-1.008 1.289,-1.011 1.281,-1.008 1.277,-1.012 1.274,-1.008 1.269,-1.011 1.258,-1.02 1.27,-1.019 1.261,-1.02 1.258,-1.031 1.262,-1.039 1.269,-1.039 1.27,-1.063 1.269,-1.058 1.282,-1.071 1.281,-1.082 1.301,-1.09 1.297,-1.109 1.312,-1.117 1.32,-1.133 1.329,-1.148 1.339,-1.161 1.36,-1.179 1.371,-1.199 1.39,-1.211 1.399,-1.243 1.422,-1.25 1.437,-1.277 1.461,-1.293 1.492,-1.316 1.5,-1.34 1.52,-1.371 1.551,-1.391 1.566,-1.41 1.602,-1.441 1.629,-1.469 1.652,-1.5 1.687,-1.531 1.711,-1.559 1.743,-1.578 1.777,-1.621 1.812,-1.653 1.84,-1.687 1.879,-1.723 1.91,-1.75 1.961,-1.789 1.981,-1.82 2.027,-1.867 2.07,-1.903 2.11,-1.937 2.152,-1.981 2.199,-2.019 1.828,-1.684"
         style="fill:none;stroke:#000080;stroke-width:0.15;stroke-linecap:butt;stroke-linejoin:bevel;stroke-miterlimit:1;stroke-dasharray:none;stroke-opacity:1"
         id="path136" /></g><g
       id="g138"
       transform="matrix(1,0,0,-1,-8.7281693,-0.56314046)"><path
         d="m 359.57,-296.281 13.578,-6.231 -7.328,13.024 z"
         style="fill:#000080;fill-opacity:1;fill-rule:nonzero;stroke:#000080;stroke-width:0.15;stroke-linecap:butt;stroke-linejoin:bevel;stroke-miterlimit:1;stroke-dasharray:none;stroke-opacity:1"
         id="path140" /></g><g
       id="g142"
       transform="matrix(0.99795818,-0.06387068,-0.06387068,-0.99795818,-23.761745,21.647692)"><path
         d="m 305.262,-189.969 0.797,-1.191 1.101,-1.649 1.078,-1.621 1.063,-1.59 1.039,-1.558 1.012,-1.531 1,-1.5 0.976,-1.469 0.961,-1.453 0.941,-1.418 0.93,-1.391 0.899,-1.371 0.89,-1.348 0.879,-1.32 0.863,-1.301 0.84,-1.281 0.828,-1.258 0.821,-1.242 0.8,-1.219 0.79,-1.199 0.769,-1.191 0.77,-1.168 0.75,-1.153 0.742,-1.14 0.73,-1.129 0.719,-1.11 0.719,-1.101 0.703,-1.09 0.687,-1.078 0.692,-1.07 0.679,-1.063 0.668,-1.058 0.672,-1.051 0.66,-1.039 0.661,-1.032 0.648,-1.027 0.652,-1.031 0.637,-1.02 0.641,-1.031 0.633,-1.019 0.636,-1.02 0.633,-1.02 0.629,-1.019 0.629,-1.031 0.641,-1.032 0.628,-1.027 0.633,-1.031 0.629,-1.051 0.641,-1.039 0.64,-1.059 0.637,-1.062 0.641,-1.078 0.652,-1.082 0.649,-1.09 0.66,-1.098 0.66,-1.121 0.672,-1.129 0.679,-1.14 0.68,-1.161 0.688,-1.171 0.703,-1.188 0.707,-1.211 0.711,-1.23 0.73,-1.239 0.738,-1.261 0.743,-1.289 0.757,-1.301 0.774,-1.328 0.777,-1.352 0.801,-1.379 0.809,-1.402 0.82,-1.418 0.832,-1.449 0.848,-1.481 0.871,-1.511 0.879,-1.532 0.902,-1.566 0.91,-1.602 0.93,-1.621 0.949,-1.66 0.969,-1.687 0.992,-1.731 1.008,-1.762 1.019,-1.8 1.051,-1.829 1.07,-1.871 1.09,-1.91 0.539,-0.961"
         style="fill:none;stroke:#b22222;stroke-width:0.01;stroke-linecap:butt;stroke-linejoin:bevel;stroke-miterlimit:1;stroke-dasharray:none;stroke-opacity:1"
         id="path144" /></g><g
       id="g146"
       transform="matrix(1,0,0,-1,-8.7281693,-0.56314046)"><path
         d="m 367.941,-292.449 11.047,-10.063 -3.027,14.633 z"
         style="fill:#b22222;fill-opacity:1;fill-rule:nonzero;stroke:#b22222;stroke-width:0.01;stroke-linecap:butt;stroke-linejoin:bevel;stroke-miterlimit:1;stroke-dasharray:none;stroke-opacity:1"
         id="path148" /></g><text
       transform="rotate(-81.214234)"
       style="font-variant:normal;font-weight:normal;font-size:10.9991px;font-family:'Nimbus Sans';-inkscape-font-specification:NimbusSans-Regular;writing-mode:lr-tb;fill:#000000;fill-opacity:1;fill-rule:nonzero;stroke:none"
       id="text152"
       x="-82.496933"
       y="231.62013"><tspan
         x="-82.496933"
         y="231.62013"
         id="tspan150">0</tspan></text><text
       transform="rotate(65.228494)"
       style="font-variant:normal;font-weight:normal;font-size:11.0024px;font-family:'Nimbus Sans';-inkscape-font-specification:NimbusSans-Regular;writing-mode:lr-tb;fill:#000000;fill-opacity:1;fill-rule:nonzero;stroke:none"
       id="text156"
       x="160.83548"
       y="-183.36406"><tspan
         x="160.83548"
         y="-183.36406"
         id="tspan154">−</tspan></text><text
       transform="rotate(65.228494)"
       style="font-variant:normal;font-weight:normal;font-size:11.0024px;font-family:'Nimbus Sans';-inkscape-font-specification:NimbusSans-Regular;writing-mode:lr-tb;fill:#000000;fill-opacity:1;fill-rule:nonzero;stroke:none"
       id="text160"
       x="167.26088"
       y="-183.36406"><tspan
         x="167.26088 173.3782 176.43687"
         y="-183.36406"
         sodipodi:role="line"
         id="tspan158">0.1</tspan></text><text
       transform="rotate(61.734517)"
       style="font-variant:normal;font-weight:normal;font-size:11.0018px;font-family:'Nimbus Sans';-inkscape-font-specification:NimbusSans-Regular;writing-mode:lr-tb;fill:#000000;fill-opacity:1;fill-rule:nonzero;stroke:none"
       id="text164"
       x="318.29004"
       y="-187.77274"><tspan
         x="318.29004"
         y="-187.77274"
         id="tspan162">−</tspan></text><text
       transform="rotate(61.734517)"
       style="font-variant:normal;font-weight:normal;font-size:11.0018px;font-family:'Nimbus Sans';-inkscape-font-specification:NimbusSans-Regular;writing-mode:lr-tb;fill:#000000;fill-opacity:1;fill-rule:nonzero;stroke:none"
       id="text168"
       x="324.71509"
       y="-187.77274"><tspan
         x="324.71509 330.83209 333.89059 340.0076"
         y="-187.77274"
         sodipodi:role="line"
         id="tspan166">0.02</tspan></text><text
       transform="rotate(-65.159363)"
       style="font-variant:normal;font-weight:normal;font-size:10.9975px;font-family:'Nimbus Sans';-inkscape-font-specification:NimbusSans-Regular;writing-mode:lr-tb;fill:#000000;fill-opacity:1;fill-rule:nonzero;stroke:none"
       id="text172"
       x="-22.810141"
       y="264.52841"><tspan
         x="-22.810141"
         y="264.52841"
         id="tspan170">−</tspan></text><text
       transform="rotate(-65.159363)"
       style="font-variant:normal;font-weight:normal;font-size:10.9975px;font-family:'Nimbus Sans';-inkscape-font-specification:NimbusSans-Regular;writing-mode:lr-tb;fill:#000000;fill-opacity:1;fill-rule:nonzero;stroke:none"
       id="text176"
       x="-16.387598"
       y="264.52841"><tspan
         x="-16.387598 -10.272988 -7.2156835 -1.1010728"
         y="264.52841"
         sodipodi:role="line"
         id="tspan174">0.02</tspan></text><text
       transform="rotate(81.265718)"
       style="font-variant:normal;font-weight:normal;font-size:10.9975px;font-family:'Nimbus Sans';-inkscape-font-specification:NimbusSans-Regular;writing-mode:lr-tb;fill:#000000;fill-opacity:1;fill-rule:nonzero;stroke:none"
       id="text180"
       x="105.45238"
       y="-253.88298"><tspan
         x="105.45238 111.56699 114.6243 120.73891"
         y="-253.88298"
         sodipodi:role="line"
         id="tspan178">0.01</tspan></text><text
       transform="rotate(68.962491)"
       style="font-variant:normal;font-weight:normal;font-size:11.0034px;font-family:'Nimbus Sans';-inkscape-font-specification:NimbusSans-Regular;writing-mode:lr-tb;fill:#000000;fill-opacity:1;fill-rule:nonzero;stroke:none"
       id="text184"
       x="290.59555"
       y="-243.076"><tspan
         x="290.59555"
         y="-243.076"
         id="tspan182">−</tspan></text><text
       transform="rotate(68.962491)"
       style="font-variant:normal;font-weight:normal;font-size:11.0034px;font-family:'Nimbus Sans';-inkscape-font-specification:NimbusSans-Regular;writing-mode:lr-tb;fill:#000000;fill-opacity:1;fill-rule:nonzero;stroke:none"
       id="text188"
       x="297.02155"
       y="-243.076"><tspan
         x="297.02155 303.13943 306.19839 312.31628"
         y="-243.076"
         sodipodi:role="line"
         id="tspan186">0.02</tspan></text><text
       transform="rotate(-52.348845)"
       style="font-variant:normal;font-weight:normal;font-size:11.001px;font-family:'Nimbus Sans';-inkscape-font-specification:NimbusSans-Regular;writing-mode:lr-tb;fill:#000000;fill-opacity:1;fill-rule:nonzero;stroke:none"
       id="text192"
       x="115.31434"
       y="274.56085"><tspan
         x="115.31434 121.43089 124.48917 130.60573"
         y="274.56085"
         sodipodi:role="line"
         id="tspan190">0.03</tspan></text><text
       transform="rotate(-81.214234)"
       style="font-variant:normal;font-weight:normal;font-size:10.9991px;font-family:'Nimbus Sans';-inkscape-font-specification:NimbusSans-Regular;writing-mode:lr-tb;fill:#000000;fill-opacity:1;fill-rule:nonzero;stroke:none"
       id="text196"
       x="-49.478436"
       y="327.80576"><tspan
         x="-49.478436 -43.362938 -40.305187 -34.18969"
         y="327.80576"
         sodipodi:role="line"
         id="tspan194">0.13</tspan></text><text
       transform="rotate(77.024902)"
       style="font-variant:normal;font-weight:normal;font-size:11.0009px;font-family:'Nimbus Sans';-inkscape-font-specification:NimbusSans-Regular;writing-mode:lr-tb;fill:#000000;fill-opacity:1;fill-rule:nonzero;stroke:none"
       id="text200"
       x="259.01706"
       y="-302.75537"><tspan
         x="259.01706 265.13358 265.13358 274.30832"
         y="-302.75537"
         sodipodi:role="line"
         id="tspan198">0.12</tspan></text><text
       transform="rotate(-35.755578)"
       style="font-variant:normal;font-weight:normal;font-size:11.0041px;font-family:'Nimbus Sans';-inkscape-font-specification:NimbusSans-Regular;writing-mode:lr-tb;fill:#000000;fill-opacity:1;fill-rule:nonzero;stroke:none"
       id="text204"
       x="225.69998"
       y="266.85779"><tspan
         x="225.69998 231.81827 234.8774 240.99568"
         y="266.85779"
         sodipodi:role="line"
         id="tspan202">0.22</tspan></text><text
       transform="rotate(-52.348845)"
       style="font-variant:normal;font-weight:normal;font-size:11.001px;font-family:'Nimbus Sans';-inkscape-font-specification:NimbusSans-Regular;writing-mode:lr-tb;fill:#000000;fill-opacity:1;fill-rule:nonzero;stroke:none"
       id="text208"
       x="137.36407"
       y="339.9743"><tspan
         x="137.36407 143.48064 146.53891 152.65547"
         y="339.9743"
         sodipodi:role="line"
         id="tspan206">0.48</tspan></text><text
       transform="rotate(-85.569346)"
       style="font-variant:normal;font-weight:normal;font-size:11.0029px;font-family:'Nimbus Sans';-inkscape-font-specification:NimbusSans-Regular;writing-mode:lr-tb;fill:#000000;fill-opacity:1;fill-rule:nonzero;stroke:none"
       id="text212"
       x="-171.92798"
       y="397.56177"><tspan
         x="-171.92798 -165.81036 -162.75156 -156.63394"
         y="397.56177"
         sodipodi:role="line"
         id="tspan210">0.01</tspan></text><text
       transform="rotate(-30.481389)"
       style="font-variant:normal;font-weight:normal;font-size:11.0003px;font-family:'Nimbus Sans';-inkscape-font-specification:NimbusSans-Regular;writing-mode:lr-tb;fill:#000000;fill-opacity:1;fill-rule:nonzero;stroke:none"
       id="text216"
       x="307.68686"
       y="260.18213"><tspan
         x="307.68686 313.80301 316.86111 322.97726"
         y="260.18213"
         sodipodi:role="line"
         id="tspan214">0.04</tspan></text><text
       transform="rotate(-42.788908)"
       style="font-variant:normal;font-weight:normal;font-size:10.9966px;font-family:'Nimbus Sans';-inkscape-font-specification:NimbusSans-Regular;writing-mode:lr-tb;fill:#000000;fill-opacity:1;fill-rule:nonzero;stroke:none"
       id="text220"
       x="241.33289"
       y="343.58527"><tspan
         x="241.33289"
         y="343.58527"
         id="tspan218">−</tspan></text><text
       transform="rotate(-42.788908)"
       style="font-variant:normal;font-weight:normal;font-size:10.9966px;font-family:'Nimbus Sans';-inkscape-font-specification:NimbusSans-Regular;writing-mode:lr-tb;fill:#000000;fill-opacity:1;fill-rule:nonzero;stroke:none"
       id="text224"
       x="247.7549"
       y="343.58527"><tspan
         x="247.7549 253.869 256.92606 263.04016"
         y="343.58527"
         sodipodi:role="line"
         id="tspan222">0.02</tspan></text><text
       transform="rotate(-76.974159)"
       style="font-variant:normal;font-weight:normal;font-size:11.0031px;font-family:'Nimbus Sans';-inkscape-font-specification:NimbusSans-Regular;writing-mode:lr-tb;fill:#000000;fill-opacity:1;fill-rule:nonzero;stroke:none"
       id="text228"
       x="-108.10513"
       y="451.32077"><tspan
         x="-108.10513 -101.98741 -98.928543 -92.810822"
         y="451.32077"
         sodipodi:role="line"
         id="tspan226">0.05</tspan></text><text
       transform="rotate(39.172165)"
       style="font-variant:normal;font-weight:normal;font-size:11.0029px;font-family:'Nimbus Sans';-inkscape-font-specification:NimbusSans-Regular;writing-mode:lr-tb;fill:#000000;fill-opacity:1;fill-rule:nonzero;stroke:none"
       id="text232"
       x="350.33252"
       y="11.104039"><tspan
         x="350.33252 356.45013 359.50894 365.62653"
         y="11.104039"
         sodipodi:role="line"
         id="tspan230">0.01</tspan></text><text
       transform="rotate(58.419797)"
       style="font-variant:normal;font-weight:normal;font-size:10.9988px;font-family:'Nimbus Sans';-inkscape-font-specification:NimbusSans-Regular;writing-mode:lr-tb;fill:#000000;fill-opacity:1;fill-rule:nonzero;stroke:none"
       id="text236"
       x="378.40402"
       y="-148.21425"><tspan
         x="378.40402"
         y="-148.21425"
         id="tspan234">0</tspan></text><text
       style="font-variant:normal;font-weight:normal;font-size:17px;font-family:'Nimbus Sans';-inkscape-font-specification:NimbusSans-Regular;writing-mode:lr-tb;fill:#000000;fill-opacity:1;fill-rule:nonzero;stroke:none"
       id="text244"
       x="28.081831"
       y="48.946877"><tspan
         x="28.081831 40.355831 49.807831 68.779831 81.053833 92.39283 113.71083 125.98483 135.43683 150.15883 162.43283 174.70683 215.89783 227.23683 236.68883 262.25684 273.59583 303.88983 315.22882 387.15582 398.49481 423.59183 435.86581 445.31781"
         y="48.946877"
         sodipodi:role="line"
         id="tspan238">C2nRB4RLIRCUB12B7B4B1R2n</tspan><tspan
         x="203.11183 212.56383 281.19281 293.4668"
         y="184.16687"
         sodipodi:role="line"
         id="tspan240">LICU</tspan><tspan
         x="368.23181 380.5058"
         y="319.38687"
         sodipodi:role="line"
         id="tspan242">DI</tspan></text><g
       id="g246"
       transform="matrix(1,0,0,-1,-8.7281693,-0.56314046)"><path
         d="M 485.852,-172.73 H 499.68"
         style="fill:none;stroke:#000080;stroke-width:1.07;stroke-linecap:butt;stroke-linejoin:round;stroke-miterlimit:10;stroke-dasharray:none;stroke-opacity:1"
         id="path248" /></g><g
       id="g250"
       transform="matrix(1,0,0,-1,-8.7281693,-0.56314046)"><path
         d="m 485.461,-177.352 14.219,4.622 -14.219,4.621 z"
         style="fill:none;stroke:#000080;stroke-width:1.07;stroke-linecap:butt;stroke-linejoin:round;stroke-miterlimit:10;stroke-dasharray:none;stroke-opacity:1"
         id="path252" /></g><g
       id="g254"
       transform="matrix(1,0,0,-1,-8.7281693,-0.56314046)"><path
         d="M 485.852,-190.012 H 499.68"
         style="fill:none;stroke:#b22222;stroke-width:1.07;stroke-linecap:butt;stroke-linejoin:round;stroke-miterlimit:10;stroke-dasharray:none;stroke-opacity:1"
         id="path256" /></g><g
       id="g258"
       transform="matrix(1,0,0,-1,-8.7281693,-0.56314046)"><path
         d="m 485.461,-194.629 14.219,4.617 -14.219,4.621 z"
         style="fill:none;stroke:#b22222;stroke-width:1.07;stroke-linecap:butt;stroke-linejoin:round;stroke-miterlimit:10;stroke-dasharray:none;stroke-opacity:1"
         id="path260" /></g><text
       style="font-variant:normal;font-weight:normal;font-size:9px;font-family:'Nimbus Sans';-inkscape-font-specification:NimbusSans-Regular;writing-mode:lr-tb;fill:#000000;fill-opacity:1;fill-rule:nonzero;stroke:none"
       id="text266"
       x="498.15182"
       y="175.39687"><tspan
         x="498.15182 503.15582 508.15982 512.65979 514.65784 517.15979 519.15784 523.4328"
         y="175.39687"
         sodipodi:role="line"
         id="tspan262">positive</tspan><tspan
         x="498.15182 503.15582 508.15982 513.16382 518.16785 520.6698 522.66785 526.94281"
         y="192.67686"
         sodipodi:role="line"
         id="tspan264">negative</tspan></text></g></svg>
